<svg width="24" height="24" viewBox="0 0 24 24" fill="none" xmlns="http://www.w3.org/2000/svg">
<mask id="mask0_12184_2213" style="mask-type:alpha" maskUnits="userSpaceOnUse" x="0" y="0" width="24" height="24">
<rect width="23.9786" height="23.9786" fill="#D9D9D9"/>
</mask>
<g mask="url(#mask0_12184_2213)">
<path d="M9.06843 13.8361H18.4061L15.3051 9.76277L12.9302 12.7986L11.3624 10.858L9.06843 13.8361ZM8.05009 17.4866C7.54537 17.4866 7.11817 17.3118 6.76848 16.9621C6.41879 16.6124 6.24395 16.1852 6.24395 15.6805V4.30614C6.24395 3.80142 6.41879 3.37422 6.76848 3.02453C7.11817 2.67484 7.54537 2.5 8.05009 2.5H19.4244C19.9292 2.5 20.3564 2.67484 20.706 3.02453C21.0557 3.37422 21.2306 3.80142 21.2306 4.30614V15.6805C21.2306 16.1852 21.0557 16.6124 20.706 16.9621C20.3564 17.3118 19.9292 17.4866 19.4244 17.4866H8.05009ZM8.05009 15.988H19.4244C19.5014 15.988 19.5718 15.9559 19.6357 15.8918C19.6999 15.8279 19.7319 15.7574 19.7319 15.6805V4.30614C19.7319 4.22921 19.6999 4.15877 19.6357 4.09483C19.5718 4.03072 19.5014 3.99866 19.4244 3.99866H8.05009C7.97316 3.99866 7.90272 4.03072 7.83878 4.09483C7.77467 4.15877 7.74261 4.22921 7.74261 4.30614V15.6805C7.74261 15.7574 7.77467 15.8279 7.83878 15.8918C7.90272 15.9559 7.97316 15.988 8.05009 15.988ZM4.55321 20.9835C4.04849 20.9835 3.62129 20.8087 3.2716 20.459C2.92191 20.1093 2.74707 19.6821 2.74707 19.1774V6.30435H4.24573V19.1774C4.24573 19.2543 4.27779 19.3247 4.3419 19.3887C4.40584 19.4528 4.47628 19.4848 4.55321 19.4848H17.4262V20.9835H4.55321Z" fill="#4A4D52"/>
</g>
</svg>
