<svg width="24" height="24" viewBox="0 0 24 24" fill="none" xmlns="http://www.w3.org/2000/svg">
<path d="M11.9774 15.0016C13.639 15.0016 14.9763 13.6594 14.9763 12.0028C14.9763 10.3462 13.634 9.00391 11.9774 9.00391C10.3208 9.00391 8.97852 10.3462 8.97852 12.0028C8.97852 13.6594 10.3208 15.0016 11.9774 15.0016Z" stroke="#161616" stroke-width="2" stroke-linecap="round" stroke-linejoin="round"/>
<path d="M19.3774 15.0014C19.2477 15.3057 19.2078 15.6351 19.2676 15.9644C19.3175 16.2887 19.4772 16.5881 19.7067 16.8226L19.7666 16.8825C19.9562 17.0671 20.0959 17.2867 20.1957 17.5312C20.2955 17.7757 20.3554 18.0352 20.3554 18.2996C20.3554 18.5641 20.2955 18.8235 20.1957 19.068C20.0959 19.3125 19.9562 19.5321 19.7666 19.7167C19.577 19.9013 19.3575 20.051 19.118 20.1508C18.8785 20.2506 18.619 20.3055 18.3595 20.3055C18.1 20.3055 17.8306 20.2556 17.5911 20.1508C17.3516 20.046 17.132 19.9013 16.9424 19.7167L16.8825 19.6568C16.643 19.4273 16.3436 19.2726 16.0243 19.2127C15.7049 19.1529 15.3656 19.1928 15.0663 19.3275C14.7669 19.4523 14.5173 19.6668 14.3377 19.9313C14.1681 20.2007 14.0683 20.5151 14.0683 20.8344V21.0041C14.0683 21.533 13.8587 22.042 13.4795 22.4162C13.1102 22.7904 12.6013 23 12.0674 23C11.5335 23 11.0295 22.7904 10.6552 22.4162C10.276 22.042 10.0665 21.533 10.0665 21.0041V20.9143C10.0565 20.5849 9.9567 20.2606 9.75711 19.9912C9.5675 19.7217 9.29803 19.5171 8.98867 19.4024C8.68928 19.2676 8.34995 19.2277 8.0306 19.2876C7.71126 19.3475 7.41188 19.5022 7.17237 19.7317L7.1125 19.7916C6.92289 19.9762 6.70331 20.1259 6.4638 20.2257C6.22429 20.3255 5.96486 20.3804 5.69541 20.3804C5.42596 20.3804 5.17647 20.3305 4.93695 20.2257C4.69744 20.1259 4.47787 19.9762 4.28826 19.7916C4.09865 19.6069 3.95894 19.3874 3.85914 19.1429C3.75935 18.8984 3.6995 18.6389 3.6995 18.3745C3.6995 18.11 3.75935 17.8505 3.85914 17.606C3.95894 17.3615 4.09865 17.142 4.28826 16.9574L4.34813 16.8975C4.57766 16.663 4.73734 16.3636 4.78724 16.0392C4.84711 15.7149 4.80721 15.3806 4.67748 15.0762C4.54774 14.7818 4.33818 14.5273 4.06874 14.3477C3.80927 14.1731 3.4899 14.0733 3.17055 14.0733H3.00091C2.47199 14.0733 1.96306 13.8637 1.58882 13.4895C1.2096 13.1152 1 12.6063 1 12.0773C1 11.5484 1.2096 11.0395 1.58882 10.6652C1.95807 10.291 2.467 10.0814 3.00091 10.0814H3.09076C3.42008 10.0715 3.73941 9.96667 4.00886 9.77207C4.27831 9.57746 4.48785 9.30801 4.59762 8.99864C4.72736 8.69426 4.76732 8.36494 4.70744 8.03561C4.65755 7.71128 4.49787 7.41189 4.26834 7.17737L4.20846 7.11749C4.01885 6.93287 3.87908 6.71331 3.77929 6.46881C3.67949 6.22431 3.61964 5.96485 3.61964 5.70039C3.61964 5.43593 3.67949 5.17646 3.77929 4.93196C3.87908 4.68746 4.01885 4.46792 4.20846 4.28329C4.39808 4.09867 4.61759 3.94896 4.8571 3.84917C5.09661 3.74937 5.35609 3.69449 5.61556 3.69449C5.87503 3.69449 6.1445 3.74438 6.38401 3.84917C6.62352 3.95395 6.84303 4.09867 7.03264 4.28329L7.09252 4.34317C7.33203 4.5727 7.63146 4.72737 7.95081 4.78725C8.27016 4.84713 8.60942 4.80722 8.90881 4.6725H8.98867C9.28805 4.54775 9.53752 4.33318 9.71716 4.06872C9.88681 3.79927 9.98662 3.48492 9.98662 3.16557V2.99592C9.98662 2.467 10.1962 1.95805 10.5754 1.58381C10.9447 1.20958 11.4536 1 11.9875 1C12.5214 1 13.0254 1.20958 13.3996 1.58381C13.7789 1.95805 13.9884 2.467 13.9884 2.99592V3.08573C13.9884 3.41007 14.0882 3.71945 14.2579 3.9889C14.4375 4.25835 14.687 4.46791 14.9864 4.59266C15.2858 4.72738 15.6251 4.76729 15.9444 4.70741C16.2638 4.64754 16.5632 4.49286 16.8027 4.26333L16.8626 4.20345C17.0522 4.01883 17.2717 3.86914 17.5112 3.76934C17.7507 3.66955 18.0102 3.61466 18.2797 3.61466C18.5491 3.61466 18.7986 3.66456 19.0381 3.76934C19.2776 3.86914 19.4971 4.01883 19.6868 4.20345C19.8764 4.38808 20.0161 4.60762 20.1159 4.85212C20.2157 5.09662 20.2756 5.35609 20.2756 5.62055C20.2756 5.88501 20.2157 6.14449 20.1159 6.38899C20.0161 6.63349 19.8764 6.85303 19.6868 7.03765L19.6269 7.09753C19.3973 7.33205 19.2377 7.63144 19.1878 7.95577C19.1279 8.28011 19.1679 8.61442 19.2976 8.9188V8.99864C19.4273 9.29304 19.6369 9.54753 19.9063 9.72716C20.1658 9.9018 20.4852 10.0016 20.8045 10.0016H20.9742C21.5031 10.0016 22.012 10.2112 22.3863 10.5854C22.7655 10.9596 22.9751 11.4686 22.9751 11.9975C22.9751 12.5264 22.7655 13.0354 22.3863 13.4096C22.017 13.7838 21.5081 13.9934 20.9742 13.9934H20.8843C20.565 13.9934 20.2457 14.0882 19.9862 14.2679C19.7167 14.4475 19.5071 14.697 19.3774 14.9964V15.0014Z" stroke="#161616" stroke-width="2" stroke-linecap="round" stroke-linejoin="round"/>
</svg>
