<svg width="15" height="14" viewBox="0 0 15 14" fill="none" xmlns="http://www.w3.org/2000/svg">
<path d="M1.91699 9.69922C2.83924 9.69937 3.58984 10.4508 3.58984 11.373C3.5896 12.2951 2.83909 13.0457 1.91699 13.0459C0.994769 13.0459 0.24341 12.2952 0.243164 11.373C0.243164 10.4507 0.994618 9.69922 1.91699 9.69922ZM5.46289 9.69922H13.7373C14.0083 9.69922 14.2285 9.91942 14.2285 10.1904V12.5547C14.2285 12.8257 14.0083 13.0459 13.7373 13.0459H5.46289C5.19192 13.0458 4.97168 12.8257 4.97168 12.5547V10.1904C4.97171 9.91947 5.19194 9.6993 5.46289 9.69922ZM1.91699 10.6816C1.5355 10.6816 1.22559 10.9916 1.22559 11.373C1.22583 11.7543 1.53565 12.0635 1.91699 12.0635C2.2982 12.0633 2.60718 11.7542 2.60742 11.373C2.60742 10.9916 2.29835 10.6818 1.91699 10.6816ZM5.9541 12.0635H13.2471V10.6816H5.9541V12.0635ZM1.91699 4.9707C2.83924 4.97085 3.58984 5.72225 3.58984 6.64453C3.58965 7.56665 2.83912 8.31723 1.91699 8.31738C0.99474 8.31738 0.243362 7.56674 0.243164 6.64453C0.243164 5.72216 0.994618 4.9707 1.91699 4.9707ZM5.46289 4.9707H13.7373C14.0083 4.9707 14.2284 5.19095 14.2285 5.46191V7.82617C14.2285 8.0972 14.0083 8.31738 13.7373 8.31738H5.46289C5.19192 8.3173 4.97168 8.09716 4.97168 7.82617V5.46191C4.97176 5.191 5.19197 4.97078 5.46289 4.9707ZM1.91699 5.95312C1.5355 5.95312 1.22559 6.26304 1.22559 6.64453C1.22578 7.02585 1.53562 7.33496 1.91699 7.33496C2.29823 7.33481 2.60722 7.02576 2.60742 6.64453C2.60742 6.26313 2.29836 5.95327 1.91699 5.95312ZM5.9541 7.33496H13.2471V5.95312H5.9541V7.33496ZM1.91699 0.242188C2.83924 0.242338 3.58984 0.993734 3.58984 1.91602C3.58969 2.83817 2.83915 3.58872 1.91699 3.58887C0.99471 3.58887 0.243314 2.83826 0.243164 1.91602C0.243164 0.993642 0.994618 0.242188 1.91699 0.242188ZM5.46289 0.242188H13.7373C14.0083 0.242188 14.2284 0.462473 14.2285 0.733398V3.09766C14.2285 3.36869 14.0083 3.58887 13.7373 3.58887H5.46289C5.19192 3.58879 4.97168 3.36864 4.97168 3.09766V0.733398C4.97181 0.462521 5.192 0.242266 5.46289 0.242188ZM1.91699 1.22461C1.5355 1.22461 1.22559 1.53453 1.22559 1.91602C1.22574 2.29738 1.53559 2.60645 1.91699 2.60645C2.29826 2.6063 2.60727 2.29729 2.60742 1.91602C2.60742 1.53462 2.29836 1.22476 1.91699 1.22461ZM5.9541 2.60645H13.2471V1.22461H5.9541V2.60645Z" fill="#6B8698" stroke="#FAF4FC" stroke-width="0.2"/>
</svg>
