<svg width="24" height="24" viewBox="0 0 24 24" fill="none" xmlns="http://www.w3.org/2000/svg">
<path d="M21.2505 9.5H19.7505M4.25055 9.5H5.75055M12.7505 1V2.5M6.74005 3.49L7.80005 4.551M18.7605 3.49L17.6995 4.551M13.406 6.2135C8.99655 10.0625 4.24905 14.9035 2.56255 16.6485C2.16755 17.057 2.04155 17.6525 2.26905 18.1725C2.39305 18.455 2.53955 18.7635 2.69105 19.026C2.84255 19.2885 3.03655 19.5695 3.21955 19.818C3.55555 20.2755 4.13455 20.4635 4.68555 20.326C7.04005 19.7375 13.6065 18.047 19.1445 16.153" stroke="#1B5C99" stroke-width="2" stroke-linecap="round" stroke-linejoin="round"/>
<path d="M10.8059 8.59728C10.8059 8.59728 11.8514 9.64328 13.6239 12.7133C15.3964 15.7833 15.7794 17.2118 15.7794 17.2118M11.3479 18.6793L11.6449 19.7883C11.7229 20.0795 11.7428 20.3832 11.7034 20.6821C11.664 20.981 11.5662 21.2692 11.4154 21.5303C11.2647 21.7913 11.064 22.0202 10.8248 22.2037C10.5856 22.3872 10.3126 22.5218 10.0214 22.5998C9.73018 22.6778 9.42647 22.6977 9.12757 22.6583C8.82868 22.6189 8.54048 22.5211 8.2794 22.3703C8.01833 22.2196 7.78951 22.0189 7.606 21.7797C7.42249 21.5405 7.2879 21.2675 7.20989 20.9763L6.96289 20.0523M13.0229 5.55078C13.0229 5.55078 14.2214 6.86128 16.6059 10.9918C18.9904 15.1223 19.5264 16.8153 19.5264 16.8153" stroke="#1B5C99" stroke-width="2" stroke-linecap="round" stroke-linejoin="round"/>
</svg>
