<svg width="17" height="19" viewBox="0 0 17 19" fill="none" xmlns="http://www.w3.org/2000/svg">
<path d="M4.62207 0.0996094V2H12.3779V0.0996094H14.0664V2H15.1113C15.6044 2.00002 16.024 2.1753 16.375 2.52832C16.7258 2.8813 16.9004 3.30346 16.9004 3.7998V17.1006C16.9003 17.5969 16.7259 18.0191 16.375 18.3721C16.024 18.7251 15.6044 18.9004 15.1113 18.9004H1.88867C1.39559 18.9004 0.975974 18.7251 0.625 18.3721C0.2741 18.0191 0.0996852 17.5969 0.0996094 17.1006V3.7998C0.0996094 3.30346 0.274238 2.8813 0.625 2.52832C0.975976 2.1753 1.3956 2.00002 1.88867 2H2.93359V0.0996094H4.62207ZM1.78906 17.1992H15.2129V7.49805H1.78906V17.1992ZM4.72363 13.3994C4.96559 13.3995 5.16401 13.4806 5.3252 13.6426C5.48648 13.8048 5.56731 14.005 5.56738 14.249C5.56738 14.4932 5.48647 14.6932 5.3252 14.8555C5.16398 15.0176 4.9657 15.0995 4.72363 15.0996C4.48135 15.0996 4.28242 15.0177 4.12109 14.8555C3.95982 14.6932 3.87891 14.4932 3.87891 14.249C3.87898 14.005 3.95981 13.8048 4.12109 13.6426C4.28238 13.4804 4.48145 13.3994 4.72363 13.3994ZM8.50098 13.3994C8.74297 13.3995 8.94133 13.4806 9.10254 13.6426C9.26382 13.8048 9.34465 14.005 9.34473 14.249C9.34473 14.4932 9.26386 14.6932 9.10254 14.8555C8.94128 15.0177 8.74311 15.0995 8.50098 15.0996C8.25869 15.0996 8.05976 15.0177 7.89844 14.8555C7.73722 14.6932 7.65625 14.4931 7.65625 14.249C7.65633 14.005 7.73715 13.8048 7.89844 13.6426C8.05974 13.4804 8.25876 13.3994 8.50098 13.3994ZM12.2793 13.3994C12.5216 13.3994 12.7205 13.4803 12.8818 13.6426C13.0431 13.8048 13.1239 14.005 13.124 14.249C13.124 14.4931 13.043 14.6932 12.8818 14.8555C12.7205 15.0177 12.5216 15.0996 12.2793 15.0996C12.0371 15.0996 11.839 15.0177 11.6777 14.8555C11.5164 14.6932 11.4346 14.4932 11.4346 14.249C11.4346 14.005 11.5165 13.8048 11.6777 13.6426C11.839 13.4806 12.0373 13.3994 12.2793 13.3994ZM4.72363 9.59863C4.96559 9.59874 5.16401 9.67978 5.3252 9.8418C5.48648 10.004 5.56731 10.2042 5.56738 10.4482C5.56738 10.6924 5.48646 10.8924 5.3252 11.0547C5.16398 11.2168 4.9657 11.2987 4.72363 11.2988C4.48135 11.2988 4.28242 11.217 4.12109 11.0547C3.95983 10.8924 3.87891 10.6924 3.87891 10.4482C3.87898 10.2042 3.95981 10.004 4.12109 9.8418C4.28238 9.67967 4.48145 9.59863 4.72363 9.59863ZM8.50098 9.59863C8.74297 9.59871 8.94133 9.67979 9.10254 9.8418C9.26382 10.004 9.34465 10.2042 9.34473 10.4482C9.34473 10.6924 9.26385 10.8924 9.10254 11.0547C8.94128 11.2169 8.74311 11.2988 8.50098 11.2988C8.25869 11.2988 8.05976 11.217 7.89844 11.0547C7.73723 10.8924 7.65625 10.6923 7.65625 10.4482C7.65633 10.2042 7.73716 10.004 7.89844 9.8418C8.05974 9.67962 8.25876 9.59863 8.50098 9.59863ZM12.2793 9.59863C12.5216 9.59863 12.7205 9.67954 12.8818 9.8418C13.0431 10.004 13.1239 10.2042 13.124 10.4482C13.124 10.6923 13.043 10.8924 12.8818 11.0547C12.7205 11.217 12.5216 11.2988 12.2793 11.2988C12.0371 11.2988 11.839 11.2169 11.6777 11.0547C11.5164 10.8924 11.4346 10.6924 11.4346 10.4482C11.4346 10.2042 11.5165 10.004 11.6777 9.8418C11.839 9.67981 12.0373 9.59866 12.2793 9.59863ZM1.78906 5.79785H15.2129V3.69824H1.78906V5.79785Z" fill="#1B5C99" stroke="white" stroke-width="0.2"/>
</svg>
