<svg width="16" height="19" viewBox="0 0 16 19" fill="none" xmlns="http://www.w3.org/2000/svg">
<path d="M13.3 0H1.9C0.85501 0 0 0.85501 0 1.9V17.1C0 18.145 0.85501 19 1.9 19H13.3C14.345 19 15.2 18.145 15.2 17.1V1.9C15.2 0.85501 14.345 0 13.3 0ZM13.9333 17.1C13.9333 17.4483 13.6483 17.7333 13.3 17.7333H1.9C1.55166 17.7333 1.26667 17.4483 1.26667 17.1V1.9C1.26667 1.55166 1.55166 1.26667 1.9 1.26667H13.3C13.6483 1.26667 13.9333 1.55166 13.9333 1.9V17.1Z" fill="#1B5C99"/>
<path d="M12.0332 2.5332H3.16654C2.81819 2.5332 2.5332 2.81819 2.5332 3.16654C2.5332 3.51488 2.81819 3.79987 3.16654 3.79987H12.0332C12.3815 3.79987 12.6665 3.51488 12.6665 3.16654C12.6665 2.81819 12.3815 2.5332 12.0332 2.5332Z" fill="#1B5C99"/>
<path d="M9.49987 6.33356C9.84821 6.33356 10.1332 6.04857 10.1332 5.70023C10.1332 5.35188 9.84821 5.06689 9.49987 5.06689H3.16654C2.81819 5.06689 2.5332 5.35188 2.5332 5.70023C2.5332 6.04857 2.81819 6.33356 3.16654 6.33356H9.49987Z" fill="#1B5C99"/>
<path d="M12.0342 5.06689H11.4009C11.0526 5.06689 10.7676 5.35188 10.7676 5.70023C10.7676 6.04857 11.0526 6.33356 11.4009 6.33356H12.0342C12.3826 6.33356 12.6676 6.04857 12.6676 5.70023C12.6676 5.35188 12.3826 5.06689 12.0342 5.06689Z" fill="#1B5C99"/>
<path d="M7.59873 7.2832C4.97663 7.2832 2.84863 9.4112 2.84863 12.0333C2.84863 14.6554 4.97663 16.7834 7.59873 16.7834C10.2208 16.7834 12.3488 14.6554 12.3488 12.0333C12.3488 9.4112 10.2208 7.2832 7.59873 7.2832ZM7.59873 15.5165C5.67972 15.5165 4.1153 13.9522 4.1153 12.0331C4.1153 10.114 5.67964 8.54967 7.59873 8.54967C9.51783 8.54967 11.0822 10.114 11.0822 12.0331C11.0822 13.9522 9.51783 15.5165 7.59873 15.5165Z" fill="#1B5C99"/>
<path d="M8.97388 10.4504L7.16889 12.2744L6.23156 11.337C5.98455 11.09 5.58556 11.09 5.33857 11.337C5.09158 11.584 5.09156 11.983 5.33857 12.23L6.72558 13.617C6.84591 13.7374 7.00425 13.8007 7.17526 13.8007C7.34626 13.8197 7.50459 13.731 7.62493 13.6107L9.8796 11.3307C10.1266 11.0837 10.1203 10.6783 9.8796 10.4377C9.63259 10.1907 9.22726 10.1907 8.98661 10.4377L8.97388 10.4504Z" fill="#1B5C99"/>
</svg>
