<svg width="19" height="18" viewBox="0 0 19 18" fill="none" xmlns="http://www.w3.org/2000/svg">
<path d="M7.05309 17.1665C7.47996 17.1665 7.82921 16.8172 7.82921 16.3904C7.82921 15.9635 7.47996 15.6143 7.05309 15.6143C6.62623 15.6143 6.27698 15.9635 6.27698 16.3904C6.27698 16.8172 6.62623 17.1665 7.05309 17.1665Z" stroke="black" stroke-width="1.5" stroke-linecap="round" stroke-linejoin="round"/>
<path d="M15.6106 17.1665C16.0375 17.1665 16.3867 16.8172 16.3867 16.3904C16.3867 15.9635 16.0375 15.6143 15.6106 15.6143C15.1837 15.6143 14.8345 15.9635 14.8345 16.3904C14.8345 16.8172 15.1837 17.1665 15.6106 17.1665Z" stroke="black" stroke-width="1.5" stroke-linecap="round" stroke-linejoin="round"/>
<path d="M0.833374 0.833008H3.9456L6.02948 11.2485C6.09933 11.6055 6.29335 11.9276 6.58052 12.1566C6.85992 12.3855 7.21693 12.5058 7.58559 12.5019H15.145C15.5097 12.5097 15.8668 12.3894 16.15 12.1566C16.4372 11.9276 16.6312 11.6055 16.7011 11.2485L17.9468 4.72135H4.87069" stroke="black" stroke-width="1.5" stroke-linecap="square" stroke-linejoin="round"/>
</svg>
