<svg width="18" height="22" viewBox="0 0 18 22" fill="none" xmlns="http://www.w3.org/2000/svg">
<path d="M10.9951 1.00499H2.99602C2.46708 1.00499 1.95808 1.21457 1.58383 1.58882C1.20957 1.96307 1 2.47206 1 3.001V19.004C1 19.5329 1.20957 20.0419 1.58383 20.4161C1.95808 20.7904 2.46708 21 2.99602 21H14.9971C15.5261 21 16.035 20.7904 16.4093 20.4161C16.7836 20.0419 16.9932 19.5329 16.9932 19.004V7.00298L10.9901 1L10.9951 1.00499Z" stroke="#161616" stroke-width="2" stroke-linecap="round" stroke-linejoin="round"/>
<path d="M10.9941 1.00586V7.00883H16.9972" stroke="#161616" stroke-width="2" stroke-linecap="round" stroke-linejoin="round"/>
<path d="M12.9952 12.0078H4.99609" stroke="#161616" stroke-width="2" stroke-linecap="round" stroke-linejoin="round"/>
<path d="M12.9952 16.0098H4.99609" stroke="#161616" stroke-width="2" stroke-linecap="round" stroke-linejoin="round"/>
<path d="M6.99711 8.00781H4.99609" stroke="#161616" stroke-width="2" stroke-linecap="round" stroke-linejoin="round"/>
</svg>
