<svg width="16" height="21" viewBox="0 0 16 21" fill="none" xmlns="http://www.w3.org/2000/svg">
<path d="M9.69615 1.5045H2.49669C2.02062 1.5045 1.5625 1.69311 1.22566 2.02994C0.888819 2.36676 0.700195 2.82485 0.700195 3.3009V17.7036C0.700195 18.1796 0.888819 18.6377 1.22566 18.9745C1.5625 19.3114 2.02062 19.5 2.49669 19.5H13.2981C13.7742 19.5 14.2323 19.3114 14.5691 18.9745C14.906 18.6377 15.0946 18.1796 15.0946 17.7036V6.90268L9.69165 1.5L9.69615 1.5045Z" stroke="#1B5C99" stroke-width="1.2" stroke-linecap="round" stroke-linejoin="round"/>
<path d="M9.69434 1.50562V6.90829H15.0973" stroke="#1B5C99" stroke-width="1.2" stroke-linecap="round" stroke-linejoin="round"/>
<path d="M11.4944 11.4062H4.29492" stroke="#1B5C99" stroke-width="1.2" stroke-linecap="round" stroke-linejoin="round"/>
<path d="M11.4944 15.0088H4.29492" stroke="#1B5C99" stroke-width="1.2" stroke-linecap="round" stroke-linejoin="round"/>
<path d="M6.09591 7.80493H4.29492" stroke="#1B5C99" stroke-width="1.2" stroke-linecap="round" stroke-linejoin="round"/>
</svg>
