<svg width="22" height="20" viewBox="0 0 22 20" fill="none" xmlns="http://www.w3.org/2000/svg">
<path d="M16.3604 3.09863L16.3818 3.13672L16.4248 3.14551L19.7666 3.8877L19.4424 7.32422L19.4385 7.36719L19.4668 7.39941L21.7422 10L19.4668 12.6006L19.4385 12.6328L19.4424 12.6758L19.7666 16.1113L16.4248 16.8545L16.3818 16.8633L16.3604 16.9014L14.5947 19.873L11.4375 18.5264L11.3984 18.5098L11.3594 18.5264L8.20117 19.873L6.4375 16.9014L6.41504 16.8633L6.37305 16.8545L3.03027 16.1113L3.35547 12.6758L3.35938 12.6328L3.33105 12.6006L1.05371 10L3.33105 7.39941L3.35938 7.36719L3.35547 7.32422L3.03027 3.8877L6.37305 3.14551L6.41504 3.13672L6.4375 3.09863L8.20117 0.125977L11.3594 1.47363L11.3984 1.49023L11.4375 1.47363L14.5947 0.125977L16.3604 3.09863ZM13.7881 2.33691L11.3975 3.36621L8.96094 2.33691L8.87988 2.30273L8.83594 2.37793L7.52344 4.62598L4.94824 5.18848L4.8623 5.20801L4.87012 5.2959L5.10352 7.91992L3.37012 9.93457L3.31348 10.001L3.37109 10.0664L5.10352 12.0322L4.87012 14.7051L4.8623 14.792L4.94824 14.8115L7.52441 15.373L8.88477 17.623L8.92969 17.6973L9.00977 17.6631L11.3984 16.6328L13.8359 17.6631L13.917 17.6973L13.9609 17.6221L15.2725 15.3721L17.8506 14.7637L17.9346 14.7432L17.9268 14.6572L17.6924 12.0332L19.4268 10.0664L19.4844 10.001L19.4277 9.93457L17.6924 7.91895L17.9268 5.2959L17.9346 5.20801L17.8486 5.18848L15.2715 4.62598L13.9131 2.37695L13.8682 2.30273L13.7881 2.33691ZM15.6406 7.99707L10.3984 13.2393L7.15918 10L8.35254 8.80664L10.3291 10.7373L10.3994 10.8066L10.4697 10.7363L14.4453 6.75977L15.6406 7.99707Z" fill="#85A3B8" stroke="#F1F7FA" stroke-width="0.2"/>
</svg>
