<svg width="23" height="15" viewBox="0 0 23 15" fill="none" xmlns="http://www.w3.org/2000/svg">
<path d="M15.5352 0.0498047H17.2119V2.02148H16.0723L16.0918 2.08594L17.3652 6.27246L17.3779 6.31348L17.4199 6.30762C17.5961 6.28175 17.7741 6.26739 17.9521 6.26465C20.2093 6.26465 22.0449 8.10025 22.0449 10.3574C22.0448 12.6145 20.2092 14.4502 17.9521 14.4502C15.6952 14.4501 13.8595 12.6144 13.8594 10.3574C13.8601 9.71294 14.013 9.07712 14.3057 8.50293C14.5876 7.94988 14.9923 7.46928 15.4873 7.0957L15.8887 8.44531C15.5231 8.84112 15.2794 9.33425 15.1855 9.86523C15.09 10.4061 15.1549 10.9633 15.3721 11.4678C15.5892 11.9721 15.9489 12.4018 16.4072 12.7041C16.8657 13.0064 17.403 13.1681 17.9521 13.1689C19.5036 13.1689 20.7645 11.9088 20.7646 10.3574C20.7646 8.80593 19.5036 7.54492 17.9521 7.54492C17.9257 7.54496 17.9021 7.55168 17.8848 7.55664C17.8655 7.56214 17.8532 7.56549 17.8408 7.56641L17.7783 7.57129L17.7969 7.63086L18.5576 10.1289L17.3164 10.4893L15.8643 5.74609L15.833 5.64453L15.7744 5.7334C15.6349 5.9464 15.4813 6.16371 15.3018 6.40039C14.6495 7.2595 13.719 8.16976 12.5801 8.69336L12.5645 8.7002L12.5566 8.7168L11.8008 10.249L11.7656 10.3213H11.7803C11.5431 10.7336 11.0927 10.998 10.6162 10.998H8.17871L8.17188 11.0391C8.01267 11.9924 7.5199 12.8589 6.78223 13.4834C6.04458 14.1078 5.10903 14.4505 4.14258 14.4502C1.88563 14.45 0.0499546 12.6144 0.0498047 10.3574C0.0498047 8.17075 1.77279 6.37929 3.93262 6.26953L4.14258 6.26465C4.5476 6.2689 4.94981 6.33274 5.33594 6.45508L5.37695 6.46875L5.39648 6.42969L6 5.17871L6.02344 5.13086L5.97363 5.11035C5.58827 4.95555 5.05601 4.78324 4.48828 4.7832C3.91822 4.7832 3.38452 4.89768 2.99414 5.01172C2.79879 5.06879 2.63856 5.12606 2.52734 5.16895C2.47187 5.19034 2.42804 5.20814 2.39844 5.2207H2.39746L1.83594 4.05859C1.8386 4.05742 1.84185 4.05692 1.84473 4.05566C1.8807 4.03995 1.93441 4.01728 2.00293 3.99023C2.14005 3.93612 2.33847 3.86422 2.58301 3.79199C3.07336 3.64718 3.74879 3.50195 4.48828 3.50195C5.3813 3.50148 6.25891 3.73822 7.03125 4.18652L7.04297 4.19238H9.41016L9.4248 4.1748C9.75429 3.77043 10.6478 2.81152 12.4287 2.81152H14.957L14.9365 2.74707L14.7207 2.05664L14.709 2.02148H11.7881V0.740234H14.6006L14.6123 0.707031C14.6782 0.514826 14.8022 0.347284 14.9678 0.229492C15.1333 0.111762 15.332 0.049054 15.5352 0.0498047ZM12.4287 4.09277C11.6609 4.09277 11.1053 4.36761 10.7422 4.64258C10.5611 4.7798 10.428 4.91724 10.3398 5.02051C10.2957 5.07217 10.2622 5.11501 10.2402 5.14551C10.2292 5.16076 10.2214 5.17326 10.2158 5.18164C10.213 5.18582 10.2104 5.18914 10.209 5.19141C10.2083 5.19242 10.2084 5.19375 10.208 5.19434H10.207L10.0078 5.47363H7.30566L7.29199 5.50098L6.53613 6.99023L6.51758 7.02734L6.55176 7.05273C7.19889 7.52541 7.69197 8.17702 7.97461 8.92578H6.54395C6.05194 8.10327 5.16809 7.54492 4.14258 7.54492C2.59121 7.54507 1.33105 8.80602 1.33105 10.3574C1.3312 11.9087 2.5913 13.1688 4.14258 13.1689C5.44991 13.1689 6.5322 12.2711 6.8457 11.0605L6.86133 10.998H4.19238V9.7168H10.6465L10.6611 9.68945L11.5029 8.00684L11.5039 8.00293L11.6016 7.76465L11.8604 7.68652L11.8633 7.68555C12.7377 7.36677 13.6371 6.46116 14.2803 5.61816C14.6332 5.15839 14.9528 4.67363 15.2344 4.16699L15.2754 4.09277H12.4287Z" fill="black" stroke="white" stroke-width="0.1"/>
</svg>
