<svg width="27" height="22" viewBox="0 0 27 22" fill="none" xmlns="http://www.w3.org/2000/svg">
<path d="M18.766 21.0004V18.7776C18.766 17.5969 18.3004 16.4717 17.4689 15.6347C16.6374 14.7977 15.5011 14.332 14.3259 14.332H5.44013C4.26497 14.332 3.1286 14.7977 2.29711 15.6347C1.46563 16.4661 1 17.5969 1 18.7776V21.0004" stroke="#161616" stroke-width="2" stroke-linecap="round" stroke-linejoin="round"/>
<path d="M9.87927 9.89113C12.3349 9.89113 14.3249 7.90115 14.3249 5.44556C14.3249 2.98997 12.3349 1 9.87927 1C7.42362 1 5.43359 2.98997 5.43359 5.44556C5.43359 7.90115 7.42362 9.89113 9.87927 9.89113Z" stroke="#161616" stroke-width="2" stroke-linecap="round" stroke-linejoin="round"/>
<path d="M25.435 21.0008V18.778C25.435 17.7913 25.1024 16.8379 24.5037 16.0563C23.9051 15.2803 23.057 14.7205 22.1035 14.4766" stroke="#161616" stroke-width="2" stroke-linecap="round" stroke-linejoin="round"/>
<path d="M17.6562 1.15039C18.6097 1.39429 19.4578 1.95414 20.0675 2.73017C20.6662 3.51175 20.9988 4.47071 20.9988 5.45738C20.9988 6.44405 20.6662 7.403 20.0675 8.18458C19.4578 8.96061 18.6097 9.52047 17.6562 9.76436" stroke="#161616" stroke-width="2" stroke-linecap="round" stroke-linejoin="round"/>
</svg>
