<svg width="30" height="30" viewBox="0 0 30 30" fill="none" xmlns="http://www.w3.org/2000/svg">
<path d="M22.8168 15.0885C22.6089 15.0877 22.4059 15.152 22.2364 15.2726C22.1648 15.3235 22.1007 15.3834 22.0454 15.4504C21.9095 15.6153 21.7285 15.7605 21.5149 15.7605H19.6209C19.3448 15.7605 19.1209 15.9843 19.1209 16.2605V16.6045C19.1209 16.8806 19.3448 17.1045 19.6209 17.1045H21.73C21.8769 17.1045 22.0067 17.1999 22.0506 17.3401C22.1183 17.5565 21.9567 17.7764 21.73 17.7764H19.7929C18.2664 17.7764 17.4006 18.4922 16.9874 18.9409C16.8856 19.0515 16.7449 19.1204 16.5946 19.1204H14.6988C14.6107 19.1204 14.5243 19.0966 14.4469 19.0544C13.7168 18.6566 12.898 18.4479 12.0651 18.4484C11.1665 18.4484 10.3662 18.6658 9.88698 18.8314C9.62467 18.9221 9.51726 19.2191 9.63806 19.4689L9.79421 19.7919C9.91271 20.037 10.2069 20.1452 10.466 20.0616C10.8498 19.9378 11.4349 19.7924 12.0651 19.7924C12.392 19.7924 12.7072 19.8521 12.9877 19.9324C13.266 20.012 13.3862 20.3288 13.2603 20.5895L13.0935 20.9345C12.9854 21.1584 12.7297 21.2653 12.486 21.2161C12.2371 21.1657 11.9837 21.139 11.7292 21.1363C9.50557 21.1363 7.69727 22.9446 7.69727 25.1682C7.69727 27.3918 9.50557 29.2001 11.7292 29.2001C12.6813 29.2004 13.6027 28.8629 14.3294 28.2477C14.9479 27.724 15.3913 27.0281 15.6063 26.2534C15.6716 26.018 15.8769 25.8402 16.1213 25.8402H18.029C18.5348 25.8402 19.0147 25.548 19.2425 25.0939C19.2447 25.0894 19.2415 25.0842 19.2365 25.0842C19.2316 25.0842 19.2283 25.079 19.2305 25.0746L19.8825 23.7522C19.9332 23.6493 20.0182 23.5677 20.1208 23.5163C21.1661 22.9933 22.021 22.1462 22.628 21.3467C22.8199 21.0938 23.2307 21.1552 23.3236 21.4587L24.3734 24.8861C24.4534 25.1473 24.7283 25.296 24.9907 25.2199L25.333 25.1206C25.6008 25.0429 25.7534 24.7612 25.672 24.4945L25.0952 22.6037C25.0792 22.5511 25.1138 22.4803 25.1688 22.4803C26.6518 22.4803 27.8567 23.6852 27.8567 25.1682C27.8567 26.6513 26.6518 27.8561 25.1688 27.8561C24.6437 27.8554 24.1304 27.701 23.6921 27.412C23.2537 27.1231 22.9095 26.7121 22.7019 26.2299C22.4943 25.7477 22.4323 25.2152 22.5237 24.6982C22.5983 24.2762 22.7723 23.8795 23.0297 23.5403C23.1376 23.3981 23.1846 23.215 23.1335 23.0439L22.9981 22.5902C22.8994 22.2597 22.5032 22.1283 22.264 22.3768C21.9895 22.662 21.7575 22.987 21.5766 23.342C21.2883 23.9076 21.1376 24.5333 21.1369 25.1682C21.1369 27.3918 22.9452 29.2001 25.1688 29.2001C27.3924 29.2001 29.2007 27.3918 29.2007 25.1682C29.2007 22.9446 27.3924 21.1363 25.1688 21.1363C25.1366 21.1368 25.1044 21.1377 25.0723 21.139C24.8251 21.1486 24.5907 21.0036 24.5187 20.7669L23.5873 17.7045C23.4965 17.4059 23.7199 17.1045 24.032 17.1045C24.2887 17.1045 24.4968 16.8964 24.4968 16.6397V15.5885C24.4968 15.3124 24.2729 15.0885 23.9968 15.0885H22.8168ZM19.7929 19.1204H21.6309C22.0122 19.1204 22.2502 19.5287 22.0407 19.8473C21.8878 20.0798 21.7264 20.3067 21.5569 20.5275C20.9319 21.3467 20.0631 22.2176 19.2258 22.5226L19.1773 22.5376C19.0352 22.5813 18.9199 22.6861 18.8628 22.8234L18.8481 22.8586L18.1672 24.2199C18.0825 24.3893 17.9094 24.4962 17.72 24.4962H12.2292C11.953 24.4962 11.7292 24.7201 11.7292 24.9962V25.3402C11.7292 25.6163 11.953 25.8402 12.2292 25.8402H13.6663C13.9933 25.8402 14.2322 26.1522 14.078 26.4406C13.628 27.2826 12.7505 27.8561 11.7292 27.8561C10.2461 27.8561 9.04123 26.6513 9.04123 25.1682C9.04123 23.6852 10.2461 22.4803 11.7292 22.4803C12.6166 22.4803 13.3938 22.9173 13.8822 23.5844C13.9871 23.7278 14.1487 23.8243 14.3263 23.8243H14.8201C15.1659 23.8243 15.4051 23.4806 15.2338 23.1801C15.0213 22.8074 14.7506 22.4702 14.4316 22.1815C14.2498 22.017 14.1834 21.7526 14.2943 21.5339L14.6982 20.7381C14.7834 20.5702 14.9557 20.4644 15.144 20.4644H17.2046C17.366 20.4644 17.5175 20.3864 17.6114 20.2551L17.6722 20.17C17.6722 20.17 18.3233 19.1204 19.7929 19.1204Z" fill="#040406" stroke="black" stroke-width="0.3"/>
<path d="M5.17178 8.43272C4.65912 9.06243 3.87525 9.46504 2.99678 9.46504C1.45236 9.46504 0.200351 8.22063 0.200351 6.68556C0.200351 6.63212 0.207178 6.58027 0.220013 6.53082C0.186108 6.40049 0.194633 6.25829 0.253912 6.12572L2.41159 1.30037C2.71081 0.631204 3.37845 0.199951 4.11519 0.199951H23.6284C24.3651 0.199951 25.0327 0.631204 25.332 1.30037L27.4897 6.12572C27.5489 6.25829 27.5574 6.40049 27.5235 6.53082C27.5364 6.58027 27.5432 6.63212 27.5432 6.68556C27.5432 8.22063 26.2912 9.46504 24.7468 9.46504C23.8683 9.46504 23.0844 9.06243 22.5718 8.43272C22.0591 9.06243 21.2753 9.46504 20.3968 9.46504C19.5183 9.46504 18.7344 9.06243 18.2218 8.43272C17.7091 9.06243 16.9253 9.46504 16.0468 9.46504C15.1683 9.46504 14.3844 9.06243 13.8718 8.43272C13.3591 9.06243 12.5753 9.46504 11.6968 9.46504C10.8183 9.46504 10.0344 9.06243 9.52178 8.43272C9.00911 9.06243 8.22525 9.46504 7.34678 9.46504C6.46831 9.46504 5.68444 9.06243 5.17178 8.43272ZM4.73236 6.24881C4.84482 6.13703 5.00018 6.0679 5.17178 6.0679C5.51499 6.0679 5.79321 6.34444 5.79321 6.68556C5.79321 7.53837 6.48877 8.22972 7.34678 8.22972C8.20479 8.22972 8.90035 7.53837 8.90035 6.68556C8.90035 6.515 8.96991 6.36058 9.08236 6.24881C9.19482 6.13703 9.35018 6.0679 9.52178 6.0679C9.86499 6.0679 10.1432 6.34444 10.1432 6.68556C10.1432 7.53837 10.8388 8.22972 11.6968 8.22972C12.5548 8.22972 13.2504 7.53837 13.2504 6.68556C13.2504 6.34444 13.5286 6.0679 13.8718 6.0679C14.0434 6.0679 14.1987 6.13703 14.3112 6.24881C14.4237 6.36058 14.4932 6.515 14.4932 6.68556C14.4932 7.53837 15.1888 8.22972 16.0468 8.22972C16.9048 8.22972 17.6004 7.53837 17.6004 6.68556C17.6004 6.515 17.6699 6.36058 17.7824 6.24881C17.8948 6.13703 18.0502 6.0679 18.2218 6.0679C18.565 6.0679 18.8432 6.34444 18.8432 6.68556C18.8432 7.53837 19.5388 8.22972 20.3968 8.22972C21.2548 8.22972 21.9504 7.53837 21.9504 6.68556C21.9504 6.34444 22.2286 6.0679 22.5718 6.0679C22.7434 6.0679 22.8987 6.13703 23.0112 6.24881C23.1237 6.36058 23.1932 6.515 23.1932 6.68556C23.1932 7.53837 23.8888 8.22972 24.7468 8.22972C25.6048 8.22972 26.3004 7.53837 26.3004 6.68556C26.3004 6.63693 26.306 6.58961 26.3167 6.54421L24.1962 1.80208C24.0965 1.57903 23.874 1.43528 23.6284 1.43528H4.11519C3.86961 1.43528 3.64706 1.57903 3.54732 1.80208L1.42686 6.54421C1.43755 6.58961 1.44321 6.63693 1.44321 6.68556C1.44321 7.53837 2.13877 8.22972 2.99678 8.22972C3.85479 8.22972 4.55035 7.53837 4.55035 6.68556C4.55035 6.515 4.61991 6.36058 4.73236 6.24881ZM24.4361 10.7004C24.4361 10.3592 24.7143 10.0827 25.0575 10.0827C25.4007 10.0827 25.6789 10.3592 25.6789 10.7004V12.5534C25.6789 12.8945 25.4007 13.171 25.0575 13.171C24.7143 13.171 24.4361 12.8945 24.4361 12.5534V10.7004ZM5.79321 25.5243C6.13641 25.5243 6.41464 25.8008 6.41464 26.1419C6.41464 26.483 6.13641 26.7596 5.79321 26.7596H3.92892C2.89931 26.7596 2.06464 25.93 2.06464 24.9066V10.7004C2.06464 10.3592 2.34286 10.0827 2.68607 10.0827C3.02927 10.0827 3.30749 10.3592 3.30749 10.7004V24.9066C3.30749 25.2477 3.58572 25.5243 3.92892 25.5243H5.79321Z" fill="black" stroke="black" stroke-width="0.4"/>
</svg>
