<svg width="19" height="19" viewBox="0 0 19 19" fill="none" xmlns="http://www.w3.org/2000/svg">
<path d="M15.7173 4.69841V15.9028C15.7173 16.3261 15.5311 16.7333 15.1985 17.0328C14.8659 17.3323 14.4136 17.5 13.9435 17.5H5.05661C4.58654 17.5 4.13421 17.3323 3.80162 17.0328C3.46902 16.7333 3.28278 16.3261 3.28278 15.9028V4.69841M5.94353 4.69841V3.0972C5.94353 2.67395 6.12977 2.26666 6.46237 1.96718C6.79496 1.66771 7.2473 1.5 7.71736 1.5H11.2739C11.744 1.5 12.1963 1.66771 12.5289 1.96718C12.8615 2.26666 13.0477 2.67395 13.0477 3.0972V4.69841" stroke="#010203" stroke-width="1.5" stroke-linecap="round" stroke-linejoin="round"/>
<path d="M7.7218 8.69922V13.5028" stroke="#010203" stroke-width="1.5" stroke-linecap="round" stroke-linejoin="round"/>
<path d="M11.2738 8.69922V13.5028" stroke="#010203" stroke-width="1.5" stroke-linecap="round" stroke-linejoin="round"/>
<path d="M1.5 4.69824H17.5" stroke="#010203" stroke-width="1.5" stroke-linecap="round" stroke-linejoin="round"/>
</svg>
