<svg width="15" height="18" viewBox="0 0 15 18" fill="none" xmlns="http://www.w3.org/2000/svg">
<path d="M9.1626 0.838064H2.63007C2.1981 0.838064 1.78243 1.00921 1.47679 1.31485C1.17115 1.62049 1 2.03617 1 2.46814V15.5372C1 15.9692 1.17115 16.3849 1.47679 16.6905C1.78243 16.9961 2.1981 17.1673 2.63007 17.1673H12.4309C12.8629 17.1673 13.2785 16.9961 13.5842 16.6905C13.8898 16.3849 14.061 15.9692 14.061 15.5372V5.73641L9.15852 0.833984L9.1626 0.838064Z" stroke="#161616" stroke-width="1.2" stroke-linecap="round" stroke-linejoin="round"/>
<path d="M9.16272 0.837891V5.74032H14.0652" stroke="#161616" stroke-width="1.2" stroke-linecap="round" stroke-linejoin="round"/>
<path d="M10.7966 9.82422H4.26404" stroke="#161616" stroke-width="1.2" stroke-linecap="round" stroke-linejoin="round"/>
<path d="M10.7966 13.0918H4.26404" stroke="#161616" stroke-width="1.2" stroke-linecap="round" stroke-linejoin="round"/>
<path d="M5.89819 6.55664H4.26404" stroke="#161616" stroke-width="1.2" stroke-linecap="round" stroke-linejoin="round"/>
</svg>
