<svg width="25" height="20" viewBox="0 0 25 20" fill="none" xmlns="http://www.w3.org/2000/svg">
<path d="M23.5143 10H16.76L14.5085 13.3743H10.0057L7.75423 10H1" stroke="#161616" stroke-width="2" stroke-linecap="round" stroke-linejoin="round"/>
<path d="M4.89119 2.2464L1.01172 9.99998V16.7542C1.01172 17.3493 1.24755 17.922 1.67423 18.3431C2.08969 18.7642 2.66232 19 3.26304 19H21.268C21.8631 19 22.4358 18.7642 22.8568 18.3431C23.2835 17.922 23.5193 17.3493 23.5193 16.7542V9.99998L19.6399 2.2464C19.449 1.87023 19.1683 1.55582 18.809 1.33685C18.4609 1.11789 18.0454 1 17.63 1H6.91793C6.50248 1 6.08703 1.11789 5.73895 1.33685C5.37964 1.55582 5.09894 1.87584 4.90805 2.2464H4.89119Z" stroke="#161616" stroke-width="2" stroke-linecap="round" stroke-linejoin="round"/>
</svg>
