<svg width="24" height="24" viewBox="0 0 24 24" fill="none" xmlns="http://www.w3.org/2000/svg">
<path d="M15.5872 5.58464C15.7738 5.39798 15.9922 5.25358 16.2352 5.15144C16.4782 5.04931 16.7353 5 16.9995 5C17.2636 5 17.5208 5.05283 17.7638 5.15144C18.0068 5.25006 18.2252 5.39798 18.4118 5.58464C18.5985 5.77131 18.7429 5.98969 18.845 6.2327C18.9436 6.47572 18.9965 6.73282 18.9965 6.99698C18.9965 7.26113 18.9436 7.51823 18.845 7.76125C18.7464 8.00426 18.5985 8.22264 18.4118 8.40931L8.88126 17.9399L5 19L6.06012 15.1187L15.5907 5.58817L15.5872 5.58464Z" stroke="#161616" stroke-width="1.5" stroke-linecap="round" stroke-linejoin="round"/>
</svg>
