<svg width="22" height="19" viewBox="0 0 22 19" fill="currentColor" xmlns="http://www.w3.org/2000/svg">
<path d="M21.6713 15.3808L13.09 1.18136C12.6484 0.448913 11.8469 0 10.9813 0C10.1158 0 9.31432 0.448892 8.87265 1.18136L0.328508 15.3808C-0.107672 16.1241 -0.109586 17.0396 0.323309 17.7847C0.756204 18.5299 1.5588 18.9927 2.43087 19H19.5934C20.4611 18.9844 21.256 18.5183 21.6829 17.7745C22.1098 17.0308 22.1053 16.1206 21.6713 15.3808ZM11.0123 16.5872C10.6872 16.5872 10.3753 16.4601 10.1454 16.2339C9.91556 16.0077 9.7864 15.7008 9.7864 15.3808C9.7864 15.0609 9.91556 14.754 10.1454 14.5278C10.3753 14.3016 10.6872 14.1745 11.0123 14.1745C11.3374 14.1745 11.6493 14.3016 11.8792 14.5278C12.109 14.754 12.2382 15.0609 12.2382 15.3808C12.2382 15.7008 12.109 16.0077 11.8792 16.2339C11.6493 16.4601 11.3374 16.5872 11.0123 16.5872ZM12.2382 11.1585C12.2382 11.5896 12.0045 11.9879 11.6252 12.2033C11.246 12.4187 10.7786 12.4187 10.3993 12.2033C10.0201 11.9879 9.7864 11.5896 9.7864 11.1585V6.33297C9.7864 5.90185 10.0201 5.50359 10.3993 5.28817C10.7786 5.07274 11.246 5.07274 11.6252 5.28817C12.0045 5.50359 12.2382 5.90186 12.2382 6.33297V11.1585Z" fill="currentColor"/>
</svg>
