<svg width="52" height="52" viewBox="0 0 52 52" fill="none" xmlns="http://www.w3.org/2000/svg">
<path d="M31.8192 24.9441L13.832 21.7754V45.19C13.8318 45.4445 13.8818 45.6965 13.9792 45.9317C14.0766 46.1668 14.2195 46.3804 14.3996 46.5602C14.5797 46.74 14.7935 46.8824 15.0288 46.9794C15.2641 47.0764 15.5162 47.126 15.7707 47.1254H46.8082C47.0629 47.1265 47.3154 47.0772 47.551 46.9804C47.7867 46.8836 48.0009 46.7412 48.1814 46.5613C48.3618 46.3815 48.5049 46.1677 48.6025 45.9324C48.7001 45.6971 48.7503 45.4448 48.75 45.19V36.5629L31.8192 24.9441Z" fill="#185C37"/>
<path d="M31.8192 4.87501H15.7707C15.5162 4.87436 15.2641 4.92396 15.0288 5.02096C14.7935 5.11795 14.5797 5.26043 14.3996 5.44024C14.2195 5.62004 14.0766 5.83362 13.9792 6.06874C13.8818 6.30386 13.8318 6.55589 13.832 6.81038V15.4375L31.8192 26L41.3433 29.1688L48.75 26V15.4375L31.8192 4.87501Z" fill="#21A366"/>
<path d="M13.832 15.4375H31.8192V26H13.832V15.4375Z" fill="#107C41"/>
<path opacity="0.1" d="M26.7053 13.3242H13.832V39.7305H26.7053C27.2182 39.7279 27.7095 39.5233 28.0727 39.1611C28.4359 38.7988 28.6417 38.308 28.6455 37.7951V15.2596C28.6417 14.7466 28.4359 14.2559 28.0727 13.8936C27.7095 13.5313 27.2182 13.3268 26.7053 13.3242Z" fill="black"/>
<path opacity="0.2" d="M25.6474 14.3809H13.832V40.7871H25.6474C26.1604 40.7846 26.6517 40.58 27.0148 40.2177C27.378 39.8555 27.5838 39.3647 27.5877 38.8517V16.3162C27.5838 15.8033 27.378 15.3125 27.0148 14.9502C26.6517 14.588 26.1604 14.3834 25.6474 14.3809Z" fill="black"/>
<path opacity="0.2" d="M25.6474 14.3809H13.832V38.6746H25.6474C26.1604 38.6721 26.6517 38.4675 27.0148 38.1052C27.378 37.743 27.5838 37.2522 27.5877 36.7392V16.3162C27.5838 15.8033 27.378 15.3125 27.0148 14.9502C26.6517 14.588 26.1604 14.3834 25.6474 14.3809Z" fill="black"/>
<path opacity="0.2" d="M24.5895 14.3809H13.832V38.6746H24.5895C25.1025 38.6721 25.5938 38.4675 25.957 38.1052C26.3201 37.743 26.5259 37.2522 26.5298 36.7392V16.3162C26.5259 15.8033 26.3201 15.3125 25.957 14.9502C25.5938 14.588 25.1025 14.3834 24.5895 14.3809Z" fill="black"/>
<path d="M5.19025 14.3809H24.5895C25.1034 14.3804 25.5964 14.584 25.9602 14.947C26.324 15.3099 26.5289 15.8024 26.5298 16.3162V35.683C26.5289 36.1969 26.324 36.6894 25.9602 37.0523C25.5964 37.4152 25.1034 37.6188 24.5895 37.6184H5.19025C4.93562 37.6192 4.68333 37.5698 4.44786 37.4729C4.21239 37.376 3.99838 37.2335 3.8181 37.0537C3.63783 36.8739 3.49484 36.6602 3.39735 36.425C3.29986 36.1898 3.24979 35.9376 3.25 35.683V16.3162C3.24979 16.0616 3.29986 15.8095 3.39735 15.5742C3.49484 15.339 3.63783 15.1253 3.8181 14.9455C3.99838 14.7657 4.21239 14.6233 4.44786 14.5264C4.68333 14.4295 4.93562 14.38 5.19025 14.3809Z" fill="url(#paint0_linear_1693_3671)"/>
<path d="M9.26172 32.2943L13.3421 25.9828L9.60459 19.707H12.606L14.6453 23.7257C14.8338 24.1059 14.9703 24.3887 15.0321 24.5772H15.0597C15.193 24.2727 15.3338 23.977 15.4822 23.6899L17.663 19.7135H20.4255L16.5921 25.9535L20.523 32.2992H17.5833L15.2271 27.8938C15.118 27.7042 15.025 27.5058 14.9492 27.3007H14.9102C14.8414 27.5006 14.7498 27.692 14.6372 27.871L12.2111 32.2943H9.26172Z" fill="white"/>
<path d="M46.809 4.87501H31.8184V15.4375H48.7492V6.81039C48.7495 6.55576 48.6994 6.30359 48.6019 6.06837C48.5044 5.83314 48.3614 5.61949 48.1811 5.43966C48.0009 5.25984 47.7868 5.11739 47.5514 5.02049C47.3159 4.92359 47.0636 4.87415 46.809 4.87501Z" fill="#33C481"/>
<path d="M31.8184 26H48.7492V36.5625H31.8184V26Z" fill="#107C41"/>
<defs>
<linearGradient id="paint0_linear_1693_3671" x1="7.30275" y1="12.8599" x2="22.477" y2="39.1394" gradientUnits="userSpaceOnUse">
<stop stop-color="#18884F"/>
<stop offset="0.5" stop-color="#117E43"/>
<stop offset="1" stop-color="#0B6631"/>
</linearGradient>
</defs>
</svg>
