<svg width="19" height="18" viewBox="0 0 19 18" fill="none" xmlns="http://www.w3.org/2000/svg">
<path d="M6.05443 10.662H12.9456V10.4896C12.9456 9.93941 12.6204 9.48333 11.9701 9.12136C11.3195 8.75955 10.4962 8.57865 9.5 8.57865C8.50382 8.57865 7.68047 8.75955 7.02995 9.12136C6.3796 9.48333 6.05443 9.93941 6.05443 10.4896V10.662ZM9.5 6.89583C9.93941 6.89583 10.3096 6.74523 10.6107 6.44401C10.9119 6.14297 11.0625 5.77274 11.0625 5.33333C11.0625 4.89392 10.9119 4.5237 10.6107 4.22266C10.3096 3.92144 9.93941 3.77083 9.5 3.77083C9.06059 3.77083 8.69036 3.92144 8.38932 4.22266C8.08811 4.5237 7.9375 4.89392 7.9375 5.33333C7.9375 5.77274 8.08811 6.14297 8.38932 6.44401C8.69036 6.74523 9.06059 6.89583 9.5 6.89583ZM0.125 17.9135V1.80781C0.125 1.3283 0.28559 0.927952 0.606771 0.606771C0.927951 0.28559 1.3283 0.125 1.80781 0.125H17.1922C17.6717 0.125 18.072 0.28559 18.3932 0.606771C18.7144 0.927952 18.875 1.3283 18.875 1.80781V13.0255C18.875 13.505 18.7144 13.9054 18.3932 14.2266C18.072 14.5477 17.6717 14.7083 17.1922 14.7083H3.33021L0.125 17.9135ZM2.88542 13.6667H17.1922C17.3526 13.6667 17.4996 13.5999 17.6331 13.4664C17.7666 13.3329 17.8333 13.1859 17.8333 13.0255V1.80781C17.8333 1.6474 17.7666 1.50043 17.6331 1.36693C17.4996 1.23342 17.3526 1.16667 17.1922 1.16667H1.80781C1.6474 1.16667 1.50043 1.23342 1.36693 1.36693C1.23342 1.50043 1.16667 1.6474 1.16667 1.80781V15.3794L2.88542 13.6667Z" fill="#1C1B1F"/>
</svg>
