<svg width="18" height="19" viewBox="0 0 18 19" fill="none" xmlns="http://www.w3.org/2000/svg">
<path d="M13.5 6.5C12.1045 6.5 10.9288 7.45703 10.5948 8.74903H0V10.249H10.5948C10.9287 11.542 12.1045 12.5 13.5 12.5C14.8955 12.5 16.0713 11.542 16.4053 10.249H18V8.74903H16.4053C16.0713 7.45703 14.8955 6.5 13.5 6.5ZM13.5 11C12.6728 11 12 10.3272 12 9.49903C12 8.67285 12.6728 8 13.5 8C14.3272 8 15 8.67285 15 9.49903C15 10.3272 14.3272 11 13.5 11Z" fill="#010203"/>
<path d="M4.49998 0C3.10448 0 1.92872 0.958 1.59472 2.25097H0V3.75097H1.59472C1.9287 5.04297 3.1045 6 4.49998 6C5.89545 6 7.07122 5.04297 7.40522 3.75097H18V2.25097H7.40522C7.07125 0.958 5.89545 0 4.49998 0ZM4.49998 4.5C3.67283 4.5 2.99997 3.82812 2.99997 3.00097C2.99997 2.17382 3.67283 1.5 4.49998 1.5C5.32713 1.5 5.99998 2.17382 5.99998 3.00097C5.99998 3.82812 5.32713 4.5 4.49998 4.5Z" fill="#010203"/>
<path d="M4.49998 13C3.10448 13 1.92872 13.958 1.59472 15.251H0V16.751H1.59472C1.9287 18.043 3.1045 19 4.49998 19C5.89545 19 7.07122 18.043 7.40522 16.751H18V15.251H7.40522C7.07125 13.958 5.89545 13 4.49998 13ZM4.49998 17.5C3.67283 17.5 2.99997 16.8281 2.99997 16.001C2.99997 15.1738 3.67283 14.5 4.49998 14.5C5.32713 14.5 5.99998 15.1738 5.99998 16.001C5.99998 16.8281 5.32713 17.5 4.49998 17.5Z" fill="#010203"/>
</svg>
