<svg width="25" height="21" viewBox="0 0 25 21" fill="none" xmlns="http://www.w3.org/2000/svg">
<path d="M23.6898 14.8081L7.90064 20.7152C7.42158 20.8943 6.92654 20.886 6.40848 20.6836C5.89026 20.4811 5.51578 20.1491 5.27619 19.6878L0.211 9.93585L1.80312 9.33948L6.88555 19.1247L6.94635 19.2427L7.07102 19.1956L22.8942 13.277L23.6898 14.8081ZM18.9037 0.309139C19.4219 0.511651 19.7965 0.843727 20.036 1.305L23.7764 8.5055C24.0156 8.96609 24.0462 9.41473 23.8782 9.86141C23.7103 10.3078 23.3933 10.6188 22.9151 10.7977L9.78271 15.7101C9.30364 15.8891 8.80862 15.881 8.29055 15.6785C7.7724 15.476 7.39782 15.1439 7.15826 14.6827L3.41789 7.48218C3.17875 7.02162 3.14806 6.57293 3.31605 6.12627C3.48403 5.67993 3.80098 5.36886 4.27916 5.18998L17.4116 0.277623C17.8906 0.098547 18.3857 0.106699 18.9037 0.309139ZM19.1773 3.5962C18.6981 3.77547 18.2025 3.7668 17.6843 3.56429C17.1662 3.36178 16.7912 3.03056 16.5516 2.56932L16.4908 2.45139L16.3665 2.49761L6.98556 6.00691L6.82647 6.0665L6.9049 6.21687C7.14401 6.67734 7.17501 7.1253 7.00714 7.57189C6.83924 8.0183 6.52301 8.32961 6.04492 8.50857L5.88584 8.56815L5.96427 8.71852L7.83406 12.3197L7.89526 12.4367L8.01953 12.3905C8.49874 12.2112 8.99436 12.2199 9.51258 12.4224C10.0307 12.6249 10.4057 12.9561 10.6453 13.4174L10.7061 13.5353L10.8303 13.4891L20.2113 9.97978L20.3704 9.92019L20.292 9.76982C20.0529 9.30933 20.0218 8.8614 20.1897 8.4148C20.3576 7.96836 20.6738 7.65707 21.1519 7.47812L21.311 7.41854L21.2326 7.26817L19.3624 3.66792L19.3016 3.54998L19.1773 3.5962ZM14.6427 5.66825C15.4305 5.97703 16.0071 6.487 16.3793 7.20361C16.7514 7.92 16.8031 8.61558 16.5441 9.30164C16.2863 9.98723 15.7928 10.4693 15.0482 10.7479C14.3026 11.0268 13.5399 11.0147 12.7525 10.7061C11.9655 10.3985 11.3878 9.88837 11.0155 9.1716C10.6435 8.45532 10.5918 7.75953 10.8507 7.07357L10.8511 7.07268C11.109 6.38725 11.6033 5.90531 12.3479 5.62679C13.0932 5.34811 13.8556 5.35981 14.6427 5.66825Z" fill="black" stroke="white" stroke-width="0.3"/>
</svg>
