<svg width="26" height="26" viewBox="0 0 26 26" fill="none" xmlns="http://www.w3.org/2000/svg">
<mask id="path-1-inside-1_2669_10479" fill="white">
<path d="M21.2594 7.36098C22.5894 9.30883 23.1882 11.6641 22.9498 14.0107C22.7114 16.3572 21.6513 18.544 19.9567 20.1846C18.2621 21.8252 16.0422 22.814 13.6892 22.9763C11.3361 23.1386 9.00147 22.464 7.09768 21.0716L10.0686 17.0095C11.0143 17.7012 12.174 18.0363 13.3428 17.9556C14.5117 17.875 15.6144 17.3838 16.4562 16.5689C17.2979 15.7539 17.8246 14.6677 17.943 13.502C18.0614 12.3364 17.764 11.1664 17.1033 10.1989L21.2594 7.36098Z"/>
</mask>
<path d="M21.2594 7.36098C22.5894 9.30883 23.1882 11.6641 22.9498 14.0107C22.7114 16.3572 21.6513 18.544 19.9567 20.1846C18.2621 21.8252 16.0422 22.814 13.6892 22.9763C11.3361 23.1386 9.00147 22.464 7.09768 21.0716L10.0686 17.0095C11.0143 17.7012 12.174 18.0363 13.3428 17.9556C14.5117 17.875 15.6144 17.3838 16.4562 16.5689C17.2979 15.7539 17.8246 14.6677 17.943 13.502C18.0614 12.3364 17.764 11.1664 17.1033 10.1989L21.2594 7.36098Z" stroke="#85A3B8" stroke-width="2.8" mask="url(#path-1-inside-1_2669_10479)"/>
<mask id="path-2-inside-2_2669_10479" fill="white">
<path d="M5.13398 19.1741C3.61686 17.241 2.86462 14.8169 3.02082 12.3646C3.17702 9.91219 4.23073 7.60318 5.98086 5.87819C7.73099 4.1532 10.055 3.13301 12.5094 3.01229C14.9637 2.89158 17.3766 3.67881 19.2876 5.22374L16.1236 9.13731C15.1744 8.36988 13.9758 7.97883 12.7566 8.03879C11.5374 8.09875 10.383 8.60553 9.51359 9.46241C8.64423 10.3193 8.12081 11.4663 8.04322 12.6845C7.96562 13.9027 8.33929 15.1068 9.09292 16.067L5.13398 19.1741Z"/>
</mask>
<path d="M5.13398 19.1741C3.61686 17.241 2.86462 14.8169 3.02082 12.3646C3.17702 9.91219 4.23073 7.60318 5.98086 5.87819C7.73099 4.1532 10.055 3.13301 12.5094 3.01229C14.9637 2.89158 17.3766 3.67881 19.2876 5.22374L16.1236 9.13731C15.1744 8.36988 13.9758 7.97883 12.7566 8.03879C11.5374 8.09875 10.383 8.60553 9.51359 9.46241C8.64423 10.3193 8.12081 11.4663 8.04322 12.6845C7.96562 13.9027 8.33929 15.1068 9.09292 16.067L5.13398 19.1741Z" stroke="#85A3B8" stroke-width="2.8" mask="url(#path-2-inside-2_2669_10479)"/>
</svg>
