<svg width="18" height="18" viewBox="0 0 18 18" fill="none" xmlns="http://www.w3.org/2000/svg">
<mask id="path-1-inside-1_1893_1731" fill="white">
<path d="M17.6864 8.39815L16.5565 8.2169C16.4827 8.20296 16.4089 8.17044 16.3628 8.11468C16.3074 8.05891 16.2798 7.99388 16.2706 7.91953C16.2429 7.78011 16.2244 7.64068 16.1968 7.50591C16.1783 7.43155 16.1875 7.35716 16.2152 7.29209C16.2521 7.22238 16.2982 7.16663 16.3628 7.12945L17.3589 6.5718C17.4327 6.53462 17.4973 6.4649 17.525 6.38589C17.5527 6.30689 17.5619 6.21857 17.525 6.13492L17.3589 5.65629C17.3313 5.57729 17.2667 5.50757 17.1929 5.47039C17.1191 5.42856 17.0361 5.41924 16.9531 5.44248L15.8232 5.66089C15.7494 5.67483 15.6756 5.66092 15.6111 5.63303C15.5465 5.6005 15.4912 5.5494 15.4543 5.47969C15.3897 5.35886 15.3159 5.23337 15.2421 5.11254C15.2052 5.04748 15.1868 4.97314 15.196 4.89878C15.2052 4.82442 15.2329 4.75468 15.279 4.69427L16.0261 3.82523C16.0815 3.76481 16.1184 3.68116 16.1184 3.59751C16.1184 3.51386 16.0907 3.43021 16.0354 3.36515L15.7125 2.97014C15.6572 2.90508 15.5834 2.8586 15.5004 2.8493C15.4174 2.83536 15.3344 2.8586 15.2606 2.90507L14.2829 3.49994C14.2183 3.53712 14.1445 3.55569 14.0707 3.5464C13.9969 3.53711 13.9231 3.50919 13.877 3.45807C13.7663 3.36513 13.6649 3.2722 13.5542 3.18855C13.4988 3.14208 13.4527 3.07701 13.4343 3.0073C13.4158 2.93759 13.4158 2.8586 13.4435 2.78889L13.8493 1.70609C13.8862 1.62708 13.8862 1.53877 13.8678 1.45511C13.8401 1.37146 13.7848 1.30638 13.711 1.25991L13.2683 0.999689C13.1945 0.957863 13.1115 0.943885 13.0284 0.962474C12.9454 0.981063 12.8716 1.02755 12.8163 1.09726L12.0968 2.00812C12.0599 2.06388 12.0046 2.10571 11.94 2.12895C11.8663 2.14754 11.8017 2.14753 11.7371 2.11965C11.7371 2.11965 11.4881 2.01742 11.3128 1.957C11.239 1.93377 11.1837 1.88728 11.1376 1.82686C11.0915 1.76645 11.073 1.69212 11.073 1.61776L11.0915 0.465238C11.0915 0.381586 11.073 0.293283 11.0177 0.228221C10.9623 0.158511 10.8885 0.116672 10.8055 0.0980828L10.3075 0.00981132C10.2244 -0.00413057 10.1322 0.00979998 10.0584 0.056273C9.98463 0.102746 9.93851 0.172424 9.91083 0.256075L9.54189 1.34824C9.51422 1.41795 9.4681 1.47836 9.41276 1.52018C9.3482 1.56201 9.2744 1.58525 9.20061 1.5806H8.77633C8.70254 1.5806 8.62875 1.56201 8.5734 1.51553C8.50884 1.47371 8.46272 1.41329 8.44427 1.34358L8.0661 0.25148C8.04765 0.167829 7.99231 0.0980941 7.91852 0.0516211C7.84473 0.00514814 7.76172 -0.00878241 7.67871 0.00515949L7.1714 0.093431C7.08839 0.107373 7.0146 0.153859 6.95926 0.223569C6.91314 0.293278 6.88547 0.376934 6.88547 0.460586L6.90392 1.61311C6.90392 1.68746 6.88547 1.76185 6.83935 1.82227C6.80245 1.88268 6.7379 1.92911 6.67333 1.95235C6.57187 1.98953 6.35049 2.07317 6.24903 2.115C6.12913 2.15682 5.99077 2.12434 5.87086 1.98957L5.15141 1.10192C5.1053 1.03221 5.03151 0.985715 4.94849 0.967126C4.86548 0.948536 4.78247 0.967162 4.70868 1.00434L4.26595 1.26456C4.19216 1.30639 4.13682 1.37611 4.10915 1.45511C4.08148 1.53412 4.0907 1.62243 4.11837 1.70144L4.53343 2.78424C4.55188 2.85395 4.56111 2.92829 4.54266 3.00265C4.51499 3.07235 4.47809 3.13742 4.42275 3.1839C4.31207 3.2722 4.20138 3.36512 4.09992 3.45342C4.04457 3.50454 3.98002 3.53245 3.90623 3.54175C3.83244 3.55104 3.75864 3.53246 3.69407 3.49529L2.7256 2.89111C2.66103 2.84464 2.56879 2.82605 2.48577 2.83535C2.40276 2.84929 2.32897 2.89112 2.27363 2.95618L1.9508 3.35119C1.89546 3.41625 1.86779 3.49991 1.86779 3.58356C1.86779 3.66721 1.90469 3.75086 1.96003 3.81127L2.70715 4.68031C2.76249 4.73608 2.79016 4.81047 2.79016 4.88482C2.79938 4.95918 2.78093 5.03352 2.74403 5.09858C2.67025 5.21476 2.59646 5.33561 2.53189 5.46574C2.495 5.5308 2.43966 5.58189 2.37509 5.61443C2.31053 5.64696 2.23674 5.65628 2.16295 5.64234L1.04688 5.42393C0.963869 5.40534 0.871628 5.41461 0.797839 5.45643C0.724049 5.49826 0.668709 5.56333 0.641038 5.64234L0.465786 6.12102C0.438115 6.20003 0.438115 6.28829 0.465786 6.37194C0.493457 6.45094 0.55803 6.51602 0.631819 6.55784L1.62798 7.12015C1.69254 7.15732 1.74789 7.21313 1.77556 7.27819C1.80323 7.3479 1.81244 7.42225 1.794 7.4966C1.77555 7.63602 1.74788 7.7708 1.72021 7.91022C1.71098 7.98458 1.68332 8.05425 1.62798 8.10537C1.58186 8.16114 1.50807 8.19371 1.44351 8.20766L0.304383 8.38885C0.22137 8.39814 0.14757 8.43997 0.0922283 8.50503C0.0368863 8.5701 0 8.6491 0 8.7374V9.24865C0 9.3323 0.0276676 9.41595 0.0830097 9.48101C0.147575 9.54607 0.22137 9.58325 0.304383 9.59254L1.44351 9.77379C1.50807 9.78773 1.58186 9.82025 1.62798 9.87602C1.68332 9.93179 1.71098 9.99687 1.72021 10.0712C1.74788 10.2106 1.76633 10.35 1.794 10.4848C1.81244 10.5591 1.80323 10.6335 1.77556 10.6986C1.74789 10.7683 1.69254 10.8241 1.62798 10.8612L0.631819 11.4236C0.55803 11.4607 0.493457 11.5304 0.465786 11.6095C0.438115 11.6885 0.428891 11.7768 0.465786 11.8604L0.631819 12.3391C0.668714 12.4181 0.724049 12.4878 0.797839 12.525C0.871628 12.5668 0.963874 12.5761 1.03766 12.5529L2.16756 12.3345C2.24134 12.3205 2.31514 12.3344 2.37971 12.3623C2.44428 12.3948 2.49962 12.4459 2.53651 12.5157C2.60108 12.6365 2.67486 12.762 2.74865 12.8828C2.78555 12.9479 2.804 13.0222 2.79477 13.0966C2.79477 13.1709 2.75788 13.2407 2.71176 13.3011L1.96463 14.1748C1.90929 14.2352 1.8724 14.3188 1.8724 14.4025C1.8724 14.4861 1.90007 14.5698 1.95541 14.6349L2.27825 15.0299C2.33359 15.0949 2.40738 15.1414 2.49039 15.1507C2.5734 15.1646 2.66563 15.1414 2.7302 15.0949L3.71714 14.5001C3.77248 14.4629 3.84627 14.4443 3.92006 14.4536C3.99385 14.4629 4.06764 14.4908 4.12298 14.5419C4.22444 14.6349 4.33512 14.7278 4.43659 14.8115C4.49193 14.8579 4.53805 14.923 4.5565 14.9927C4.57494 15.0624 4.57494 15.1414 4.54726 15.2111L4.14142 16.2939C4.10453 16.3729 4.10453 16.4612 4.1322 16.5402C4.15065 16.6239 4.206 16.689 4.27978 16.7354L4.72252 16.9957C4.79631 17.0375 4.88854 17.0515 4.96233 17.0329C5.04534 17.0143 5.11914 16.9678 5.17448 16.8981L5.90315 15.9965C5.98616 15.885 6.13374 15.8338 6.25365 15.8849C6.40123 15.9454 6.50268 15.9826 6.67793 16.043C6.75172 16.0662 6.81629 16.1127 6.85318 16.1731C6.8993 16.2335 6.91776 16.3079 6.91776 16.3822L6.8993 17.5394C6.8993 17.6231 6.92698 17.7114 6.9731 17.7764C7.02844 17.8415 7.10222 17.888 7.18524 17.9066L7.69254 17.9948C7.77555 18.0088 7.85856 17.9949 7.93235 17.9484C8.00614 17.9019 8.06149 17.8322 8.07993 17.7532L8.45811 16.6611C8.47655 16.5914 8.52267 16.5309 8.58724 16.4891C8.64258 16.4473 8.71637 16.4241 8.79016 16.4287H9.21444C9.28823 16.4287 9.36202 16.4473 9.41736 16.4891C9.48193 16.5309 9.52805 16.5914 9.54649 16.6611L9.92467 17.7532C9.94312 17.8368 9.99846 17.9066 10.0723 17.9484C10.146 17.9949 10.229 18.0088 10.3121 17.9948L10.8194 17.9066C10.9024 17.8926 10.9762 17.8461 11.0315 17.7764C11.0776 17.7067 11.1053 17.6231 11.1053 17.5394L11.0868 16.3822C11.0868 16.3079 11.1053 16.2335 11.1514 16.1731C11.1883 16.1127 11.2529 16.0662 11.3267 16.043C11.5019 15.9826 11.6218 15.9314 11.7417 15.8896C11.8524 15.8478 11.9908 15.8478 12.0922 15.9826L12.8301 16.8981C12.8855 16.9678 12.9593 17.0143 13.0423 17.0329C13.1253 17.0515 13.2083 17.0328 13.2821 16.9957L13.7248 16.7354C13.7986 16.6936 13.854 16.6239 13.8816 16.5449C13.9093 16.4612 13.9001 16.3729 13.8632 16.2939L13.4573 15.2111C13.4297 15.1414 13.4297 15.0671 13.4481 14.9927C13.4666 14.923 13.5127 14.8579 13.568 14.8115C13.6787 14.7232 13.7802 14.6302 13.8909 14.5419C13.9462 14.4908 14.0108 14.4629 14.0845 14.4536C14.1583 14.4443 14.2321 14.4629 14.2967 14.5001L15.2744 15.0949C15.339 15.1414 15.4312 15.16 15.5142 15.1507C15.5972 15.1368 15.671 15.0949 15.7264 15.0299L16.0492 14.6349C16.1045 14.5698 16.1322 14.4861 16.1322 14.4025C16.1322 14.3188 16.0953 14.2352 16.04 14.1748L15.2929 13.3057C15.2375 13.25 15.2098 13.1756 15.2098 13.1012C15.2006 13.0269 15.2191 12.9525 15.256 12.8875C15.3297 12.7713 15.4035 12.6458 15.4681 12.5203C15.505 12.4552 15.5603 12.4041 15.6249 12.3716C15.6895 12.3391 15.7633 12.3298 15.837 12.3437L16.9531 12.5622C17.0361 12.5808 17.1284 12.5714 17.2021 12.5296C17.2759 12.4878 17.3313 12.4227 17.3589 12.3437L17.5342 11.8651C17.5619 11.7861 17.5619 11.6978 17.5342 11.6141C17.5065 11.5351 17.442 11.47 17.3682 11.4282L16.372 10.8705C16.3075 10.8334 16.2521 10.7776 16.2244 10.7125C16.1968 10.6428 16.1875 10.5684 16.1968 10.4941C16.2244 10.3547 16.2521 10.2199 16.2706 10.0805C16.289 10.0061 16.3167 9.93644 16.372 9.88532C16.4181 9.82956 16.4827 9.79698 16.5565 9.78304L17.6956 9.60185C17.7786 9.59255 17.8524 9.55072 17.9078 9.48566C17.9631 9.4206 18 9.3416 18 9.2533V8.74205C17.9908 8.6584 17.9631 8.5794 17.8985 8.51434C17.8432 8.45392 17.7694 8.4121 17.6864 8.40281V8.39815ZM8.98847 2.70986C10.3766 2.70986 11.7141 3.17463 12.8071 4.02974C13.9047 4.88484 14.6841 6.08382 15.0254 7.43154C15.053 7.53378 15.053 7.64069 15.0346 7.74758C15.0161 7.84982 14.97 7.9474 14.9055 8.03106C14.8409 8.11471 14.7579 8.18439 14.6564 8.23086C14.5642 8.27733 14.4627 8.30058 14.3613 8.30058H9.79554C9.67563 8.30058 9.55573 8.26807 9.45427 8.20766C9.34358 8.14724 9.26057 8.05427 9.196 7.94738L6.94081 3.94141C6.88547 3.84846 6.8578 3.74621 6.84858 3.63932C6.83936 3.53244 6.8578 3.42558 6.90392 3.32799C6.94082 3.2304 7.00538 3.14208 7.08839 3.07237C7.1714 3.00266 7.26364 2.95156 7.3651 2.92368C7.89085 2.78426 8.44427 2.71451 8.99308 2.71451L8.98847 2.70986ZM2.74865 8.99767C2.74865 8.15651 2.91468 7.32464 3.2375 6.54854C3.56033 5.77244 4.03997 5.07072 4.64412 4.48516C4.71791 4.41081 4.81014 4.35505 4.9116 4.31787C5.01306 4.28069 5.11452 4.27601 5.22521 4.28996C5.32667 4.3039 5.42812 4.34572 5.51114 4.40149C5.60337 4.4619 5.67717 4.54091 5.73251 4.63385L7.98771 8.64913C8.05227 8.75601 8.07993 8.8722 8.07993 8.99767C8.07993 9.12315 8.05227 9.23933 7.98771 9.34622L5.71406 13.3475C5.65872 13.4405 5.58494 13.5195 5.4927 13.5799C5.40969 13.6403 5.30822 13.6775 5.19754 13.6914C5.09608 13.7054 4.98539 13.6915 4.89315 13.6589C4.79169 13.6264 4.69946 13.566 4.62567 13.4916C4.02613 12.9061 3.55572 12.209 3.2375 11.4329C2.91468 10.6614 2.74865 9.83419 2.74865 8.99767ZM8.98847 15.2855C8.43505 15.2855 7.8724 15.2157 7.33282 15.0717C7.23136 15.0438 7.13912 14.9927 7.05611 14.923C6.97309 14.8533 6.90853 14.765 6.87163 14.6674C6.83474 14.5698 6.8163 14.4629 6.8163 14.356C6.82552 14.2491 6.8624 14.1469 6.90852 14.0539L9.19139 10.0573C9.24673 9.95038 9.33897 9.86206 9.44043 9.80165C9.55112 9.74123 9.67101 9.70872 9.79092 9.70872H14.3567C14.4581 9.70872 14.5596 9.73197 14.661 9.77845C14.7533 9.82492 14.8363 9.8946 14.9008 9.97825C14.9654 10.0619 15.0115 10.1595 15.03 10.2617C15.0576 10.364 15.0484 10.4709 15.03 10.5778C14.6795 11.9301 13.9001 13.1245 12.8117 13.9796C11.7095 14.8347 10.372 15.2948 8.98385 15.2948L8.98847 15.2855Z"/>
</mask>
<path d="M17.6864 8.39815L16.5565 8.2169C16.4827 8.20296 16.4089 8.17044 16.3628 8.11468C16.3074 8.05891 16.2798 7.99388 16.2706 7.91953C16.2429 7.78011 16.2244 7.64068 16.1968 7.50591C16.1783 7.43155 16.1875 7.35716 16.2152 7.29209C16.2521 7.22238 16.2982 7.16663 16.3628 7.12945L17.3589 6.5718C17.4327 6.53462 17.4973 6.4649 17.525 6.38589C17.5527 6.30689 17.5619 6.21857 17.525 6.13492L17.3589 5.65629C17.3313 5.57729 17.2667 5.50757 17.1929 5.47039C17.1191 5.42856 17.0361 5.41924 16.9531 5.44248L15.8232 5.66089C15.7494 5.67483 15.6756 5.66092 15.6111 5.63303C15.5465 5.6005 15.4912 5.5494 15.4543 5.47969C15.3897 5.35886 15.3159 5.23337 15.2421 5.11254C15.2052 5.04748 15.1868 4.97314 15.196 4.89878C15.2052 4.82442 15.2329 4.75468 15.279 4.69427L16.0261 3.82523C16.0815 3.76481 16.1184 3.68116 16.1184 3.59751C16.1184 3.51386 16.0907 3.43021 16.0354 3.36515L15.7125 2.97014C15.6572 2.90508 15.5834 2.8586 15.5004 2.8493C15.4174 2.83536 15.3344 2.8586 15.2606 2.90507L14.2829 3.49994C14.2183 3.53712 14.1445 3.55569 14.0707 3.5464C13.9969 3.53711 13.9231 3.50919 13.877 3.45807C13.7663 3.36513 13.6649 3.2722 13.5542 3.18855C13.4988 3.14208 13.4527 3.07701 13.4343 3.0073C13.4158 2.93759 13.4158 2.8586 13.4435 2.78889L13.8493 1.70609C13.8862 1.62708 13.8862 1.53877 13.8678 1.45511C13.8401 1.37146 13.7848 1.30638 13.711 1.25991L13.2683 0.999689C13.1945 0.957863 13.1115 0.943885 13.0284 0.962474C12.9454 0.981063 12.8716 1.02755 12.8163 1.09726L12.0968 2.00812C12.0599 2.06388 12.0046 2.10571 11.94 2.12895C11.8663 2.14754 11.8017 2.14753 11.7371 2.11965C11.7371 2.11965 11.4881 2.01742 11.3128 1.957C11.239 1.93377 11.1837 1.88728 11.1376 1.82686C11.0915 1.76645 11.073 1.69212 11.073 1.61776L11.0915 0.465238C11.0915 0.381586 11.073 0.293283 11.0177 0.228221C10.9623 0.158511 10.8885 0.116672 10.8055 0.0980828L10.3075 0.00981132C10.2244 -0.00413057 10.1322 0.00979998 10.0584 0.056273C9.98463 0.102746 9.93851 0.172424 9.91083 0.256075L9.54189 1.34824C9.51422 1.41795 9.4681 1.47836 9.41276 1.52018C9.3482 1.56201 9.2744 1.58525 9.20061 1.5806H8.77633C8.70254 1.5806 8.62875 1.56201 8.5734 1.51553C8.50884 1.47371 8.46272 1.41329 8.44427 1.34358L8.0661 0.25148C8.04765 0.167829 7.99231 0.0980941 7.91852 0.0516211C7.84473 0.00514814 7.76172 -0.00878241 7.67871 0.00515949L7.1714 0.093431C7.08839 0.107373 7.0146 0.153859 6.95926 0.223569C6.91314 0.293278 6.88547 0.376934 6.88547 0.460586L6.90392 1.61311C6.90392 1.68746 6.88547 1.76185 6.83935 1.82227C6.80245 1.88268 6.7379 1.92911 6.67333 1.95235C6.57187 1.98953 6.35049 2.07317 6.24903 2.115C6.12913 2.15682 5.99077 2.12434 5.87086 1.98957L5.15141 1.10192C5.1053 1.03221 5.03151 0.985715 4.94849 0.967126C4.86548 0.948536 4.78247 0.967162 4.70868 1.00434L4.26595 1.26456C4.19216 1.30639 4.13682 1.37611 4.10915 1.45511C4.08148 1.53412 4.0907 1.62243 4.11837 1.70144L4.53343 2.78424C4.55188 2.85395 4.56111 2.92829 4.54266 3.00265C4.51499 3.07235 4.47809 3.13742 4.42275 3.1839C4.31207 3.2722 4.20138 3.36512 4.09992 3.45342C4.04457 3.50454 3.98002 3.53245 3.90623 3.54175C3.83244 3.55104 3.75864 3.53246 3.69407 3.49529L2.7256 2.89111C2.66103 2.84464 2.56879 2.82605 2.48577 2.83535C2.40276 2.84929 2.32897 2.89112 2.27363 2.95618L1.9508 3.35119C1.89546 3.41625 1.86779 3.49991 1.86779 3.58356C1.86779 3.66721 1.90469 3.75086 1.96003 3.81127L2.70715 4.68031C2.76249 4.73608 2.79016 4.81047 2.79016 4.88482C2.79938 4.95918 2.78093 5.03352 2.74403 5.09858C2.67025 5.21476 2.59646 5.33561 2.53189 5.46574C2.495 5.5308 2.43966 5.58189 2.37509 5.61443C2.31053 5.64696 2.23674 5.65628 2.16295 5.64234L1.04688 5.42393C0.963869 5.40534 0.871628 5.41461 0.797839 5.45643C0.724049 5.49826 0.668709 5.56333 0.641038 5.64234L0.465786 6.12102C0.438115 6.20003 0.438115 6.28829 0.465786 6.37194C0.493457 6.45094 0.55803 6.51602 0.631819 6.55784L1.62798 7.12015C1.69254 7.15732 1.74789 7.21313 1.77556 7.27819C1.80323 7.3479 1.81244 7.42225 1.794 7.4966C1.77555 7.63602 1.74788 7.7708 1.72021 7.91022C1.71098 7.98458 1.68332 8.05425 1.62798 8.10537C1.58186 8.16114 1.50807 8.19371 1.44351 8.20766L0.304383 8.38885C0.22137 8.39814 0.14757 8.43997 0.0922283 8.50503C0.0368863 8.5701 0 8.6491 0 8.7374V9.24865C0 9.3323 0.0276676 9.41595 0.0830097 9.48101C0.147575 9.54607 0.22137 9.58325 0.304383 9.59254L1.44351 9.77379C1.50807 9.78773 1.58186 9.82025 1.62798 9.87602C1.68332 9.93179 1.71098 9.99687 1.72021 10.0712C1.74788 10.2106 1.76633 10.35 1.794 10.4848C1.81244 10.5591 1.80323 10.6335 1.77556 10.6986C1.74789 10.7683 1.69254 10.8241 1.62798 10.8612L0.631819 11.4236C0.55803 11.4607 0.493457 11.5304 0.465786 11.6095C0.438115 11.6885 0.428891 11.7768 0.465786 11.8604L0.631819 12.3391C0.668714 12.4181 0.724049 12.4878 0.797839 12.525C0.871628 12.5668 0.963874 12.5761 1.03766 12.5529L2.16756 12.3345C2.24134 12.3205 2.31514 12.3344 2.37971 12.3623C2.44428 12.3948 2.49962 12.4459 2.53651 12.5157C2.60108 12.6365 2.67486 12.762 2.74865 12.8828C2.78555 12.9479 2.804 13.0222 2.79477 13.0966C2.79477 13.1709 2.75788 13.2407 2.71176 13.3011L1.96463 14.1748C1.90929 14.2352 1.8724 14.3188 1.8724 14.4025C1.8724 14.4861 1.90007 14.5698 1.95541 14.6349L2.27825 15.0299C2.33359 15.0949 2.40738 15.1414 2.49039 15.1507C2.5734 15.1646 2.66563 15.1414 2.7302 15.0949L3.71714 14.5001C3.77248 14.4629 3.84627 14.4443 3.92006 14.4536C3.99385 14.4629 4.06764 14.4908 4.12298 14.5419C4.22444 14.6349 4.33512 14.7278 4.43659 14.8115C4.49193 14.8579 4.53805 14.923 4.5565 14.9927C4.57494 15.0624 4.57494 15.1414 4.54726 15.2111L4.14142 16.2939C4.10453 16.3729 4.10453 16.4612 4.1322 16.5402C4.15065 16.6239 4.206 16.689 4.27978 16.7354L4.72252 16.9957C4.79631 17.0375 4.88854 17.0515 4.96233 17.0329C5.04534 17.0143 5.11914 16.9678 5.17448 16.8981L5.90315 15.9965C5.98616 15.885 6.13374 15.8338 6.25365 15.8849C6.40123 15.9454 6.50268 15.9826 6.67793 16.043C6.75172 16.0662 6.81629 16.1127 6.85318 16.1731C6.8993 16.2335 6.91776 16.3079 6.91776 16.3822L6.8993 17.5394C6.8993 17.6231 6.92698 17.7114 6.9731 17.7764C7.02844 17.8415 7.10222 17.888 7.18524 17.9066L7.69254 17.9948C7.77555 18.0088 7.85856 17.9949 7.93235 17.9484C8.00614 17.9019 8.06149 17.8322 8.07993 17.7532L8.45811 16.6611C8.47655 16.5914 8.52267 16.5309 8.58724 16.4891C8.64258 16.4473 8.71637 16.4241 8.79016 16.4287H9.21444C9.28823 16.4287 9.36202 16.4473 9.41736 16.4891C9.48193 16.5309 9.52805 16.5914 9.54649 16.6611L9.92467 17.7532C9.94312 17.8368 9.99846 17.9066 10.0723 17.9484C10.146 17.9949 10.229 18.0088 10.3121 17.9948L10.8194 17.9066C10.9024 17.8926 10.9762 17.8461 11.0315 17.7764C11.0776 17.7067 11.1053 17.6231 11.1053 17.5394L11.0868 16.3822C11.0868 16.3079 11.1053 16.2335 11.1514 16.1731C11.1883 16.1127 11.2529 16.0662 11.3267 16.043C11.5019 15.9826 11.6218 15.9314 11.7417 15.8896C11.8524 15.8478 11.9908 15.8478 12.0922 15.9826L12.8301 16.8981C12.8855 16.9678 12.9593 17.0143 13.0423 17.0329C13.1253 17.0515 13.2083 17.0328 13.2821 16.9957L13.7248 16.7354C13.7986 16.6936 13.854 16.6239 13.8816 16.5449C13.9093 16.4612 13.9001 16.3729 13.8632 16.2939L13.4573 15.2111C13.4297 15.1414 13.4297 15.0671 13.4481 14.9927C13.4666 14.923 13.5127 14.8579 13.568 14.8115C13.6787 14.7232 13.7802 14.6302 13.8909 14.5419C13.9462 14.4908 14.0108 14.4629 14.0845 14.4536C14.1583 14.4443 14.2321 14.4629 14.2967 14.5001L15.2744 15.0949C15.339 15.1414 15.4312 15.16 15.5142 15.1507C15.5972 15.1368 15.671 15.0949 15.7264 15.0299L16.0492 14.6349C16.1045 14.5698 16.1322 14.4861 16.1322 14.4025C16.1322 14.3188 16.0953 14.2352 16.04 14.1748L15.2929 13.3057C15.2375 13.25 15.2098 13.1756 15.2098 13.1012C15.2006 13.0269 15.2191 12.9525 15.256 12.8875C15.3297 12.7713 15.4035 12.6458 15.4681 12.5203C15.505 12.4552 15.5603 12.4041 15.6249 12.3716C15.6895 12.3391 15.7633 12.3298 15.837 12.3437L16.9531 12.5622C17.0361 12.5808 17.1284 12.5714 17.2021 12.5296C17.2759 12.4878 17.3313 12.4227 17.3589 12.3437L17.5342 11.8651C17.5619 11.7861 17.5619 11.6978 17.5342 11.6141C17.5065 11.5351 17.442 11.47 17.3682 11.4282L16.372 10.8705C16.3075 10.8334 16.2521 10.7776 16.2244 10.7125C16.1968 10.6428 16.1875 10.5684 16.1968 10.4941C16.2244 10.3547 16.2521 10.2199 16.2706 10.0805C16.289 10.0061 16.3167 9.93644 16.372 9.88532C16.4181 9.82956 16.4827 9.79698 16.5565 9.78304L17.6956 9.60185C17.7786 9.59255 17.8524 9.55072 17.9078 9.48566C17.9631 9.4206 18 9.3416 18 9.2533V8.74205C17.9908 8.6584 17.9631 8.5794 17.8985 8.51434C17.8432 8.45392 17.7694 8.4121 17.6864 8.40281V8.39815ZM8.98847 2.70986C10.3766 2.70986 11.7141 3.17463 12.8071 4.02974C13.9047 4.88484 14.6841 6.08382 15.0254 7.43154C15.053 7.53378 15.053 7.64069 15.0346 7.74758C15.0161 7.84982 14.97 7.9474 14.9055 8.03106C14.8409 8.11471 14.7579 8.18439 14.6564 8.23086C14.5642 8.27733 14.4627 8.30058 14.3613 8.30058H9.79554C9.67563 8.30058 9.55573 8.26807 9.45427 8.20766C9.34358 8.14724 9.26057 8.05427 9.196 7.94738L6.94081 3.94141C6.88547 3.84846 6.8578 3.74621 6.84858 3.63932C6.83936 3.53244 6.8578 3.42558 6.90392 3.32799C6.94082 3.2304 7.00538 3.14208 7.08839 3.07237C7.1714 3.00266 7.26364 2.95156 7.3651 2.92368C7.89085 2.78426 8.44427 2.71451 8.99308 2.71451L8.98847 2.70986ZM2.74865 8.99767C2.74865 8.15651 2.91468 7.32464 3.2375 6.54854C3.56033 5.77244 4.03997 5.07072 4.64412 4.48516C4.71791 4.41081 4.81014 4.35505 4.9116 4.31787C5.01306 4.28069 5.11452 4.27601 5.22521 4.28996C5.32667 4.3039 5.42812 4.34572 5.51114 4.40149C5.60337 4.4619 5.67717 4.54091 5.73251 4.63385L7.98771 8.64913C8.05227 8.75601 8.07993 8.8722 8.07993 8.99767C8.07993 9.12315 8.05227 9.23933 7.98771 9.34622L5.71406 13.3475C5.65872 13.4405 5.58494 13.5195 5.4927 13.5799C5.40969 13.6403 5.30822 13.6775 5.19754 13.6914C5.09608 13.7054 4.98539 13.6915 4.89315 13.6589C4.79169 13.6264 4.69946 13.566 4.62567 13.4916C4.02613 12.9061 3.55572 12.209 3.2375 11.4329C2.91468 10.6614 2.74865 9.83419 2.74865 8.99767ZM8.98847 15.2855C8.43505 15.2855 7.8724 15.2157 7.33282 15.0717C7.23136 15.0438 7.13912 14.9927 7.05611 14.923C6.97309 14.8533 6.90853 14.765 6.87163 14.6674C6.83474 14.5698 6.8163 14.4629 6.8163 14.356C6.82552 14.2491 6.8624 14.1469 6.90852 14.0539L9.19139 10.0573C9.24673 9.95038 9.33897 9.86206 9.44043 9.80165C9.55112 9.74123 9.67101 9.70872 9.79092 9.70872H14.3567C14.4581 9.70872 14.5596 9.73197 14.661 9.77845C14.7533 9.82492 14.8363 9.8946 14.9008 9.97825C14.9654 10.0619 15.0115 10.1595 15.03 10.2617C15.0576 10.364 15.0484 10.4709 15.03 10.5778C14.6795 11.9301 13.9001 13.1245 12.8117 13.9796C11.7095 14.8347 10.372 15.2948 8.98385 15.2948L8.98847 15.2855Z" fill="#161616" stroke="white" stroke-width="0.2" mask="url(#path-1-inside-1_1893_1731)"/>
</svg>
