<svg width="24" height="20" viewBox="0 0 24 20" fill="none" xmlns="http://www.w3.org/2000/svg">
<path d="M15.8964 0.899902H0.900391V13.8954H15.8964V0.899902Z" stroke="black" stroke-width="1.8" stroke-linecap="round" stroke-linejoin="round"/>
<path d="M15.8965 5.89819H19.8974L22.8957 8.89638V13.895H15.8965V5.89819Z" stroke="black" stroke-width="1.8" stroke-linecap="round" stroke-linejoin="round"/>
<path d="M5.39974 18.8985C6.78161 18.8985 7.89908 17.7811 7.89908 16.3992C7.89908 15.0174 6.78161 13.8999 5.39974 13.8999C4.01787 13.8999 2.90039 15.0174 2.90039 16.3992C2.90039 17.7811 4.01787 18.8985 5.39974 18.8985Z" stroke="black" stroke-width="1.8" stroke-linecap="round" stroke-linejoin="round"/>
<path d="M18.3958 18.8985C19.7777 18.8985 20.8952 17.7811 20.8952 16.3992C20.8952 15.0174 19.7777 13.8999 18.3958 13.8999C17.014 13.8999 15.8965 15.0174 15.8965 16.3992C15.8965 17.7811 17.014 18.8985 18.3958 18.8985Z" stroke="black" stroke-width="1.8" stroke-linecap="round" stroke-linejoin="round"/>
</svg>
