<svg width="16" height="20" viewBox="0 0 16 20" fill="none" xmlns="http://www.w3.org/2000/svg">
<path d="M9.59556 0.604593H2.3961C1.92003 0.604593 1.46192 0.793208 1.12508 1.13003C0.788234 1.46686 0.599609 1.92495 0.599609 2.401V16.8037C0.599609 17.2797 0.788234 17.7378 1.12508 18.0746C1.46192 18.4115 1.92003 18.6001 2.3961 18.6001H13.1975C13.6736 18.6001 14.1317 18.4115 14.4685 18.0746C14.8054 17.7378 14.994 17.2797 14.994 16.8037V6.00278L9.59107 0.600098L9.59556 0.604593Z" stroke="#1B5C99" stroke-width="1.2" stroke-linecap="round" stroke-linejoin="round"/>
<path d="M9.59375 0.605713V6.00839H14.9967" stroke="#1B5C99" stroke-width="1.2" stroke-linecap="round" stroke-linejoin="round"/>
<path d="M11.3938 10.5063H4.19434" stroke="#1B5C99" stroke-width="1.2" stroke-linecap="round" stroke-linejoin="round"/>
<path d="M11.3938 14.1089H4.19434" stroke="#1B5C99" stroke-width="1.2" stroke-linecap="round" stroke-linejoin="round"/>
<path d="M5.99532 6.90503H4.19434" stroke="#1B5C99" stroke-width="1.2" stroke-linecap="round" stroke-linejoin="round"/>
</svg>
