<svg width="26" height="26" viewBox="0 0 26 26" fill="none" xmlns="http://www.w3.org/2000/svg">
<path d="M14.8135 7.98655L19.616 9.26511M13.7855 11.8051L16.1857 12.4449M13.9052 19.0007L14.8649 19.2572C17.5809 19.9815 18.939 20.3427 20.0093 19.728C21.0786 19.1144 21.4428 17.7634 22.1701 15.0634L23.1992 11.2438C23.9275 8.54284 24.2906 7.19285 23.673 6.12855C23.0553 5.06426 21.6983 4.70312 18.9812 3.97984L18.0215 3.72332C15.3055 2.99903 13.9474 2.6379 12.8781 3.25253C11.8078 3.86617 11.4436 5.21716 10.7153 7.91714L9.68722 11.7367C8.95891 14.4377 8.59475 15.7877 9.21341 16.852C9.83107 17.9153 11.1891 18.2774 13.9052 19.0007Z" stroke="#1B5C99" stroke-width="1.2" stroke-linecap="round" stroke-linejoin="round"/>
<path d="M12.0713 21.9979L11.1136 22.2595C8.40357 22.9968 7.04956 23.366 5.98123 22.7393C4.91492 22.1136 4.55077 20.7375 3.82548 17.9832L2.7984 14.0881C2.0721 11.3348 1.70895 9.95768 2.3256 8.87326C2.85876 7.93471 4.02365 7.96891 5.53258 7.96891" stroke="#1B5C99" stroke-width="1.2" stroke-linecap="round" stroke-linejoin="round"/>
</svg>
