<svg width="18" height="18" viewBox="0 0 18 18" fill="none" xmlns="http://www.w3.org/2000/svg">
<path fill-rule="evenodd" clip-rule="evenodd" d="M13.6095 3.605L13.5645 3.57C13.478 2.913 13.1635 2.2285 12.6725 1.6515C11.875 0.714 10.575 0 8.83497 0C7.11997 0 5.91147 0.782 5.19847 1.7515C4.86568 2.19987 4.62799 2.7115 4.49997 3.255C4.47672 3.35678 4.45803 3.45955 4.44397 3.563L4.38997 3.6045C3.82797 4.04 3.41547 4.568 3.51347 5.1735C3.60747 5.7585 4.13647 6.1145 4.62847 6.332C4.7538 6.38733 4.8883 6.43933 5.03197 6.488C4.95968 7.05164 5.00831 7.62421 5.17463 8.16758C5.34094 8.71095 5.62113 9.21265 5.99652 9.63926C6.37191 10.0659 6.83388 10.4076 7.35168 10.6417C7.86948 10.8758 8.43121 10.9969 8.99947 10.9969C9.56773 10.9969 10.1295 10.8758 10.6473 10.6417C11.1651 10.4076 11.627 10.0659 12.0024 9.63926C12.3778 9.21265 12.658 8.71095 12.8243 8.16758C12.9906 7.62421 13.0393 7.05164 12.967 6.488C13.1106 6.43967 13.2451 6.38767 13.3705 6.332C13.8625 6.1145 14.391 5.7585 14.4855 5.1735C14.5835 4.568 14.171 4.04 13.609 3.6045M5.47197 4.3355C5.40697 4.1485 5.38997 3.848 5.47447 3.4765C5.55747 3.114 5.72947 2.7165 5.99947 2.3485V3.75C5.99947 3.88261 6.05215 4.00979 6.14592 4.10355C6.23968 4.19732 6.36686 4.25 6.49947 4.25C6.63208 4.25 6.75925 4.19732 6.85302 4.10355C6.94679 4.00979 6.99947 3.88261 6.99947 3.75V1.455C7.41097 1.221 7.90847 1.0575 8.49947 1.0125V2.75C8.49947 2.88261 8.55215 3.00979 8.64592 3.10355C8.73968 3.19732 8.86686 3.25 8.99947 3.25C9.13208 3.25 9.25925 3.19732 9.35302 3.10355C9.44679 3.00979 9.49947 2.88261 9.49947 2.75V1.0435C10.0275 1.11 10.5372 1.2799 10.9995 1.5435V3.75C10.9995 3.88261 11.0521 4.00979 11.1459 4.10355C11.2397 4.19732 11.3669 4.25 11.4995 4.25C11.6321 4.25 11.7593 4.19732 11.853 4.10355C11.9468 4.00979 11.9995 3.88261 11.9995 3.75V2.409C12.552 3.117 12.6815 3.881 12.526 4.3395C12.4874 4.45298 12.491 4.57652 12.5359 4.68762C12.5808 4.79872 12.6641 4.89 12.7707 4.94483C12.8772 4.99965 13 5.01438 13.1165 4.98633C13.233 4.95828 13.3355 4.88932 13.4055 4.792C13.504 4.9295 13.5005 5.0025 13.4985 5.014C13.492 5.054 13.4155 5.219 12.966 5.418C12.771 5.504 12.539 5.5815 12.2785 5.65L12.2665 5.653C11.984 5.726 11.6695 5.788 11.333 5.839C10.7089 5.92893 10.0799 5.98069 9.44947 5.994C9.01611 6.00499 8.58249 6.00032 8.14947 5.98C7.65142 5.95742 7.1548 5.91003 6.66147 5.838C6.34877 5.79268 6.03867 5.73093 5.73247 5.653L5.72047 5.65C5.48543 5.5913 5.25552 5.51371 5.03297 5.418C4.58347 5.219 4.50697 5.054 4.50047 5.014C4.49847 5.0025 4.49497 4.9295 4.59347 4.792C4.66352 4.88976 4.76646 4.95899 4.88341 4.98701C5.00037 5.01503 5.12351 4.99995 5.23025 4.94455C5.33699 4.88914 5.42019 4.79712 5.46458 4.68535C5.50898 4.57358 5.5116 4.44955 5.47197 4.336M6.01047 6.7405C6.1768 6.77283 6.34814 6.80233 6.52447 6.829C7.05847 6.909 7.63347 6.96 8.21847 6.984C8.73991 7.00549 9.26202 7.00549 9.78347 6.984C10.3655 6.96 10.9385 6.909 11.47 6.829C11.648 6.803 11.8208 6.7735 11.9885 6.7405C12.024 7.15458 11.9732 7.57152 11.8391 7.96491C11.705 8.35829 11.4907 8.71953 11.2097 9.02571C10.9287 9.3319 10.5871 9.57636 10.2066 9.74359C9.82614 9.91082 9.41507 9.99717 8.99947 9.99717C8.58387 9.99717 8.1728 9.91082 7.79233 9.74359C7.41186 9.57636 7.07029 9.3319 6.78926 9.02571C6.50824 8.71953 6.29391 8.35829 6.15984 7.96491C6.02578 7.57152 5.97491 7.15458 6.01047 6.7405Z" fill="black"/>
<path fill-rule="evenodd" clip-rule="evenodd" d="M11.5 11.2441C11.829 11.3016 12.164 11.3686 12.5 11.4451C15.2215 12.0666 18 13.3091 18 14.9991V17.9991H0V14.9991C0 13.3091 2.7785 12.0666 5.5 11.4451C5.83157 11.3697 6.16501 11.3026 6.5 11.2441V13.4991H11.5V11.2441ZM4.5 12.7441C4.827 12.6441 5.1625 12.5536 5.5 12.4721V14.4991H12.5V12.4726C13.0066 12.5936 13.5071 12.7384 14 12.9066V16.9991H15V13.2976C15.1453 13.3623 15.285 13.4288 15.419 13.4971C15.9875 13.7861 16.409 14.0841 16.676 14.3691C16.9385 14.6491 17 14.8556 17 14.9991V16.9991H1V14.9991C1 14.8556 1.0615 14.6491 1.324 14.3691C1.591 14.0841 2.0125 13.7861 2.581 13.4971C2.8655 13.3521 3.174 13.2161 3.5 13.0896V16.9991H4.5V12.7441Z" fill="black"/>
</svg>
