<svg width="24" height="22" viewBox="0 0 24 22" fill="none" xmlns="http://www.w3.org/2000/svg">
<path d="M0.75 0.75H7.41859C8.59377 0.75 9.73013 1.21562 10.5616 2.05265C11.3931 2.88414 11.8587 4.01495 11.8587 5.19566V20.75C11.8587 19.8686 11.504 19.0205 10.8831 18.3941C10.2623 17.7677 9.41417 17.4185 8.52725 17.4185H0.75V0.755549V0.75Z" stroke="#161616" stroke-width="1.5" stroke-linecap="round" stroke-linejoin="round"/>
<path d="M22.9721 0.75H16.3035C15.1283 0.75 13.9919 1.21562 13.1604 2.05265C12.3289 2.88414 11.8633 4.01495 11.8633 5.19566V20.75C11.8633 19.8686 12.2181 19.0205 12.8389 18.3941C13.4598 17.7677 14.3079 17.4185 15.1948 17.4185H22.9721V0.755549V0.75Z" stroke="#161616" stroke-width="1.5" stroke-linecap="round" stroke-linejoin="round"/>
</svg>
