<svg width="18" height="16" viewBox="0 0 18 16" fill="none" xmlns="http://www.w3.org/2000/svg">
<path d="M9.88889 1.875H17M9.88889 5.375H14.3333M9.88889 10.625H17M9.88889 14.125H14.3333M1 1.875C1 1.64294 1.09365 1.42038 1.26035 1.25628C1.42705 1.09219 1.65314 1 1.88889 1H5.44444C5.68019 1 5.90628 1.09219 6.07298 1.25628C6.23968 1.42038 6.33333 1.64294 6.33333 1.875V5.375C6.33333 5.60706 6.23968 5.82962 6.07298 5.99372C5.90628 6.15781 5.68019 6.25 5.44444 6.25H1.88889C1.65314 6.25 1.42705 6.15781 1.26035 5.99372C1.09365 5.82962 1 5.60706 1 5.375V1.875ZM1 10.625C1 10.3929 1.09365 10.1704 1.26035 10.0063C1.42705 9.84219 1.65314 9.75 1.88889 9.75H5.44444C5.68019 9.75 5.90628 9.84219 6.07298 10.0063C6.23968 10.1704 6.33333 10.3929 6.33333 10.625V14.125C6.33333 14.3571 6.23968 14.5796 6.07298 14.7437C5.90628 14.9078 5.68019 15 5.44444 15H1.88889C1.65314 15 1.42705 14.9078 1.26035 14.7437C1.09365 14.5796 1 14.3571 1 14.125V10.625Z" stroke="#010203" stroke-width="1.5" stroke-linecap="round" stroke-linejoin="round"/>
</svg>
