<svg width="11" height="16" viewBox="0 0 11 16" fill="none" xmlns="http://www.w3.org/2000/svg">
<path d="M5.20384 0.75C4.6959 0.75 4.21336 0.949993 3.85463 1.30872C3.4959 1.66745 3.2959 2.15317 3.2959 2.65793V7.74681C3.2959 8.25475 3.4959 8.73728 3.85463 9.09601C4.21336 9.45474 4.69907 9.65475 5.20384 9.65475C5.7086 9.65475 6.19431 9.45474 6.55304 9.09601C6.91177 8.73728 7.11177 8.25157 7.11177 7.74681V2.65793C7.11177 2.14999 6.91177 1.66745 6.55304 1.30872C6.19431 0.949993 5.7086 0.75 5.20384 0.75Z" stroke="#161616" stroke-width="1.5" stroke-linecap="round" stroke-linejoin="round"/>
<path d="M9.65794 6.47656V7.74958C9.65794 8.93053 9.18811 10.0639 8.35319 10.8988C7.51827 11.7337 6.38492 12.2035 5.20397 12.2035C4.02302 12.2035 2.88968 11.7337 2.05476 10.8988C1.21984 10.0639 0.75 8.93053 0.75 7.74958V6.47656" stroke="#161616" stroke-width="1.5" stroke-linecap="round" stroke-linejoin="round"/>
<path d="M5.2041 12.2031V14.7492" stroke="#161616" stroke-width="1.5" stroke-linecap="round" stroke-linejoin="round"/>
<path d="M2.66113 14.7461H7.75002" stroke="#161616" stroke-width="1.5" stroke-linecap="round" stroke-linejoin="round"/>
</svg>
