<svg width="90" height="90" viewBox="0 0 90 90" fill="none" xmlns="http://www.w3.org/2000/svg">
<path d="M85.1589 15.9737H81.7328V14.9503C81.7328 10.7772 78.338 7.38184 74.1649 7.38184C69.9917 7.38184 66.5969 10.7772 66.5969 14.9503V15.9737H52.5081V14.9503C52.5081 10.7772 49.1133 7.38184 44.9401 7.38184C40.767 7.38184 37.3722 10.7772 37.3722 14.9503V15.9737H23.2833V14.9503C23.2833 10.7772 19.8885 7.38184 15.7154 7.38184C11.5422 7.38184 8.14746 10.7772 8.14746 14.9503V15.9737H4.84113C2.17145 15.9737 0 18.1451 0 20.8148V61.2896C0 63.9592 2.17145 66.1307 4.84113 66.1307H11.7834V87.7501H1.125C0.503723 87.7501 0 88.2538 0 88.8751C0 89.4964 0.503723 90.0001 1.125 90.0001H88.875C89.4963 90.0001 90 89.4964 90 88.8751C90 88.2538 89.4963 87.7501 88.875 87.7501H78.2166V66.1307H85.1589C87.8286 66.1307 90 63.9592 90 61.2896V20.8148C90 18.1451 87.8286 15.9737 85.1589 15.9737ZM87.75 42.1793L60.4955 63.8807H41.9418L87.75 25.3053V42.1793ZM67.3391 66.1307V87.7501H22.6604V66.1307H67.3391ZM87.75 20.8148V22.3635L38.4484 63.8807H19.7755L72.9196 18.3286C72.9547 18.2985 72.971 18.257 73.0015 18.2237H85.1589C86.5876 18.2237 87.75 19.386 87.75 20.8148ZM68.8469 14.9503C68.8469 12.0175 71.2326 9.63184 74.1649 9.63184C77.0971 9.63184 79.4828 12.0175 79.4828 14.9503V15.9737H68.8469V14.9503ZM2.25 37.0336L28.6793 18.394C28.7459 18.347 28.7872 18.2812 28.8403 18.2237H47.4638L2.25 56.1163V37.0336ZM39.6222 14.9503C39.6222 12.0175 42.0079 9.63184 44.9401 9.63184C47.8724 9.63184 50.2581 12.0175 50.2581 14.9503V15.9737H39.6222V14.9503ZM10.3975 14.9503C10.3975 12.0175 12.7831 9.63184 15.7154 9.63184C18.6476 9.63184 21.0333 12.0175 21.0333 14.9503V15.9737H10.3975V14.9503ZM4.84113 18.2237H25.0166L2.25 34.2801V20.8148C2.25 19.386 3.41235 18.2237 4.84113 18.2237ZM2.25 61.2896V59.0519L50.8315 18.3369C50.8701 18.3045 50.8888 18.2598 50.9219 18.2237H69.5844L16.3301 63.8702C16.3266 63.8733 16.3253 63.8777 16.3219 63.8807H4.84113C3.41235 63.8807 2.25 62.7183 2.25 61.2896ZM14.0334 66.1307H20.4104V87.7501H14.0334V66.1307ZM75.9666 87.7501H69.5891V66.1307H75.9666V87.7501ZM85.1589 63.8807H64.1077L87.75 45.0555V61.2896C87.75 62.7183 86.5876 63.8807 85.1589 63.8807Z" fill="#010203"/>
<path d="M15.6973 4.80817C16.3185 4.80817 16.8223 4.30444 16.8223 3.68317V1.125C16.8223 0.503723 16.3185 0 15.6973 0C15.076 0 14.5723 0.503723 14.5723 1.125V3.68317C14.5723 4.30444 15.076 4.80817 15.6973 4.80817Z" fill="#010203"/>
<path d="M21.4561 6.90216C21.7439 6.90216 22.0323 6.7923 22.2515 6.57257L23.9983 4.8252C24.4377 4.38574 24.4377 3.67328 23.9983 3.23438C23.5588 2.79492 22.8458 2.79492 22.4075 3.23438L20.6606 4.98175C20.2212 5.4212 20.2212 6.13367 20.6606 6.57257C20.8804 6.7923 21.1682 6.90216 21.4561 6.90216Z" fill="#010203"/>
<path d="M9.0354 6.30835C9.25513 6.52808 9.54297 6.63794 9.83081 6.63794C10.1187 6.63794 10.4065 6.52808 10.6262 6.30835C11.0657 5.8689 11.0657 5.15698 10.6262 4.71753L9.14307 3.23438C8.70361 2.79492 7.9917 2.79492 7.55225 3.23438C7.11279 3.67383 7.11279 4.38574 7.55225 4.8252L9.0354 6.30835Z" fill="#010203"/>
<path d="M44.9229 4.80817C45.5441 4.80817 46.0479 4.30444 46.0479 3.68317V1.125C46.0479 0.503723 45.5441 0 44.9229 0C44.3016 0 43.7979 0.503723 43.7979 1.125V3.68317C43.7979 4.30444 44.3016 4.80817 44.9229 4.80817Z" fill="#010203"/>
<path d="M50.6807 6.90216C50.9685 6.90216 51.2563 6.7923 51.4761 6.57257L53.2234 4.8252C53.6629 4.38574 53.6629 3.67383 53.2234 3.23438C52.784 2.79492 52.0721 2.79492 51.6326 3.23438L49.8853 4.98175C49.4458 5.4212 49.4458 6.13312 49.8853 6.57257C50.105 6.7923 50.3928 6.90216 50.6807 6.90216Z" fill="#010203"/>
<path d="M38.26 6.30835C38.4797 6.52808 38.7676 6.63794 39.0554 6.63794C39.3433 6.63794 39.6311 6.52808 39.8508 6.30835C40.2903 5.8689 40.2903 5.15698 39.8508 4.71753L38.3677 3.23438C37.9282 2.79492 37.2163 2.79492 36.7769 3.23438C36.3374 3.67383 36.3374 4.38574 36.7769 4.8252L38.26 6.30835Z" fill="#010203"/>
<path d="M74.1475 4.80817C74.7687 4.80817 75.2725 4.30444 75.2725 3.68317V1.125C75.2725 0.503723 74.7687 0 74.1475 0C73.5262 0 73.0225 0.503723 73.0225 1.125V3.68317C73.0225 4.30444 73.5262 4.80817 74.1475 4.80817Z" fill="#010203"/>
<path d="M79.9053 6.90216C80.1931 6.90216 80.481 6.7923 80.7007 6.57257L82.4481 4.8252C82.8875 4.38574 82.8875 3.67383 82.4481 3.23438C82.0086 2.79492 81.2967 2.79492 80.8572 3.23438L79.1099 4.98175C78.6704 5.4212 78.6704 6.13312 79.1099 6.57257C79.3296 6.7923 79.6174 6.90216 79.9053 6.90216Z" fill="#010203"/>
<path d="M67.4846 6.30835C67.7043 6.52808 67.9922 6.63794 68.28 6.63794C68.5679 6.63794 68.8557 6.52808 69.0754 6.30835C69.5149 5.8689 69.5149 5.15698 69.0754 4.71753L67.5923 3.23438C67.1528 2.79492 66.4409 2.79492 66.0015 3.23438C65.562 3.67383 65.562 4.38574 66.0015 4.8252L67.4846 6.30835Z" fill="#010203"/>
</svg>
