<svg width="133" height="24" viewBox="0 0 133 24" fill="none" xmlns="http://www.w3.org/2000/svg">
<g clip-path="url(#clip0_8262_15615)">
<path d="M122.88 9.66921H114.979L115.695 8.594C115.979 8.16915 116.455 7.91397 116.966 7.91397L126.923 7.91396C128.143 7.91396 128.87 9.2734 128.194 10.2883L122.12 19.3985C121.837 19.8233 121.36 20.0785 120.849 20.0785L115.94 20.0783L122.88 9.66921ZM114.978 7.91388L110.422 7.91353L102.312 20.0783L107.221 20.0785C107.732 20.0785 108.209 19.8233 108.492 19.3985L114.978 9.66894V7.91388ZM80.4813 20.0783L97.5918 20.0785C98.1024 20.0785 98.5792 19.8234 98.8625 19.3985L105.728 9.10112C106.066 8.59367 105.703 7.91395 105.093 7.91393L87.9822 7.91355C87.4716 7.91354 86.9948 8.16872 86.7115 8.59357L79.846 18.8912C79.5077 19.3986 79.8714 20.0783 80.4813 20.0783ZM94.0816 17.9828C93.94 18.1953 93.7015 18.3229 93.4462 18.3229H85.9522L91.4941 10.0093C91.6358 9.79681 91.8742 9.66921 92.1295 9.66921H99.6235L94.0816 17.9828ZM73.4637 9.66921L74.6342 7.91353L67.55 7.91392C67.0394 7.91395 66.5626 8.16913 66.2794 8.59396L65.5625 9.66921H73.4637ZM65.5622 7.91388L61.8233 7.91359C61.3126 7.91355 60.8357 8.16875 60.5524 8.59365L52.896 20.0783L57.805 20.0785C58.3157 20.0785 58.7925 19.8233 59.0758 19.3985L65.5622 9.66894V7.91388ZM31.0645 20.0783L48.175 20.0785C48.6856 20.0785 49.1624 19.8234 49.4457 19.3985L56.3112 9.10112C56.6495 8.59367 56.2858 7.91395 55.6759 7.91393L38.5654 7.91355C38.0548 7.91354 37.578 8.16872 37.2947 8.59357L30.4292 18.8912C30.0909 19.3986 30.4546 20.0783 31.0645 20.0783ZM44.6648 17.9828C44.5232 18.1953 44.2847 18.3229 44.0294 18.3229H36.5354L42.0774 10.0093C42.219 9.79681 42.4574 9.66921 42.7127 9.66921H50.2067L44.6648 17.9828ZM132.389 3.99415H85.8742L88.5363 0.00037584L83.6278 4.49519e-09C83.1171 -3.91115e-05 82.6402 0.255207 82.357 0.680167L80.148 3.99415H31.5476C31.0369 3.99415 30.5601 4.24938 30.2768 4.67429L21.7228 17.5071V6.89231e-05H16.8143C16.3036 6.89231e-05 15.8267 0.25531 15.5435 0.680235L0 23.9998L4.90891 24C5.4196 24 5.89651 23.7448 6.17975 23.3198L19.9676 2.63384V20.0785H24.9179C25.4285 20.0785 25.9054 19.8233 26.1886 19.3985L35.0612 6.08944C35.2028 5.87701 35.4412 5.74941 35.6966 5.74941H78.978L69.4271 20.0782L74.3356 20.0784C74.8463 20.0784 75.3232 19.8232 75.6064 19.3983L84.4776 6.08949C84.6192 5.87703 84.8576 5.74941 85.113 5.74941H131.22L132.389 3.99415ZM14.827 7.32411e-05L8.18733 0.000463639C7.67671 0.000493696 7.19989 0.255718 6.91667 0.680598L4.70791 3.99418H9.61645C10.1271 3.99418 10.604 3.73895 10.8872 3.31403L11.6992 2.09582C11.8408 1.88337 12.0793 1.75575 12.3346 1.75575H14.827V7.32411e-05Z" fill="white"/>
</g>
<defs>
<clipPath id="clip0_8262_15615">
<rect width="132.389" height="24" fill="white"/>
</clipPath>
</defs>
</svg>
