<svg width="21" height="24" viewBox="0 0 21 24" fill="none" xmlns="http://www.w3.org/2000/svg">
<path d="M10.9443 1.02344C15.6645 1.0781 19.4648 4.81619 19.4131 9.36328V15.5811C19.4131 16.1884 19.5916 16.7814 19.9277 17.2959L20.6611 18.4219C20.8163 18.6612 20.8253 18.9637 20.6826 19.2119C20.5403 19.4578 20.2717 19.6104 19.9814 19.6104H14.1689C14.1726 19.6671 14.1738 19.7224 14.1738 19.7744C14.1737 21.5411 12.6691 22.9795 10.8408 22.9795C9.0127 22.9793 7.51086 21.5409 7.51074 19.7744C7.51074 19.7256 7.51471 19.677 7.51855 19.6338C7.51925 19.6259 7.51986 19.6179 7.52051 19.6104H1.7041C1.41442 19.6104 1.14358 19.46 1.00098 19.2119C0.887546 19.0145 0.871637 18.7833 0.948242 18.5762H0.921875L1.02246 18.4219L1.75781 17.2959C2.09251 16.7812 2.27243 16.1867 2.27246 15.5811V9.36328C2.27249 4.77297 6.14309 1.04338 10.9014 1.02441L10.9033 1.02246L10.9443 1.02344ZM9.12012 19.6104C9.11457 19.6609 9.1123 19.7141 9.1123 19.7744C9.11232 20.6938 9.87161 21.4307 10.8379 21.4307L11.0166 21.4219C11.8969 21.3365 12.5664 20.636 12.5664 19.7744C12.5664 19.7195 12.5626 19.6646 12.5566 19.6104H9.12012ZM10.9336 2.57422C7.02517 2.57842 3.87891 5.61206 3.87891 9.36523V15.583C3.87882 16.4585 3.62312 17.3146 3.15234 18.0605H18.5342C18.0635 17.3144 17.8126 16.4581 17.8125 15.583V9.39746L17.8105 9.39648L17.8115 9.35352C17.8593 5.65107 14.7907 2.62076 10.9336 2.57324V2.57422Z" fill="white" stroke="white" stroke-width="0.2"/>
</svg>
