<svg width="16" height="20" viewBox="0 0 16 20" fill="none" xmlns="http://www.w3.org/2000/svg">
<path d="M3 3.125C3 2.95241 3.06102 2.8051 3.18306 2.68306C3.3051 2.56102 3.45241 2.5 3.625 2.5H4.875C5.04759 2.5 5.1949 2.56102 5.31694 2.68306C5.43898 2.8051 5.5 2.95241 5.5 3.125V4.375C5.5 4.54759 5.43898 4.6949 5.31694 4.81694C5.1949 4.93898 5.04759 5 4.875 5H3.625C3.45241 5 3.3051 4.93898 3.18306 4.81694C3.06102 4.6949 3 4.54759 3 4.375V3.125ZM6.75 3.125C6.75 2.95241 6.81102 2.8051 6.93306 2.68306C7.0551 2.56102 7.20241 2.5 7.375 2.5H8.625C8.79759 2.5 8.9449 2.56102 9.06694 2.68306C9.18898 2.8051 9.25 2.95241 9.25 3.125V4.375C9.25 4.54759 9.18898 4.6949 9.06694 4.81694C8.9449 4.93898 8.79759 5 8.625 5H7.375C7.20241 5 7.0551 4.93898 6.93306 4.81694C6.81102 4.6949 6.75 4.54759 6.75 4.375V3.125ZM11.125 2.5C10.9524 2.5 10.8051 2.56102 10.6831 2.68306C10.561 2.8051 10.5 2.95241 10.5 3.125V4.375C10.5 4.54759 10.561 4.6949 10.6831 4.81694C10.8051 4.93898 10.9524 5 11.125 5H12.375C12.5476 5 12.6949 4.93898 12.8169 4.81694C12.939 4.6949 13 4.54759 13 4.375V3.125C13 2.95241 12.939 2.8051 12.8169 2.68306C12.6949 2.56102 12.5476 2.5 12.375 2.5H11.125ZM3 6.875C3 6.70241 3.06102 6.5551 3.18306 6.43306C3.3051 6.31102 3.45241 6.25 3.625 6.25H4.875C5.04759 6.25 5.1949 6.31102 5.31694 6.43306C5.43898 6.5551 5.5 6.70241 5.5 6.875V8.125C5.5 8.29759 5.43898 8.4449 5.31694 8.56694C5.1949 8.68898 5.04759 8.75 4.875 8.75H3.625C3.45241 8.75 3.3051 8.68898 3.18306 8.56694C3.06102 8.4449 3 8.29759 3 8.125V6.875ZM7.375 6.25C7.20241 6.25 7.0551 6.31102 6.93306 6.43306C6.81102 6.5551 6.75 6.70241 6.75 6.875V8.125C6.75 8.29759 6.81102 8.4449 6.93306 8.56694C7.0551 8.68898 7.20241 8.75 7.375 8.75H8.625C8.79759 8.75 8.9449 8.68898 9.06694 8.56694C9.18898 8.4449 9.25 8.29759 9.25 8.125V6.875C9.25 6.70241 9.18898 6.5551 9.06694 6.43306C8.9449 6.31102 8.79759 6.25 8.625 6.25H7.375ZM10.5 6.875C10.5 6.70241 10.561 6.5551 10.6831 6.43306C10.8051 6.31102 10.9524 6.25 11.125 6.25H12.375C12.5476 6.25 12.6949 6.31102 12.8169 6.43306C12.939 6.5551 13 6.70241 13 6.875V8.125C13 8.29759 12.939 8.4449 12.8169 8.56694C12.6949 8.68898 12.5476 8.75 12.375 8.75H11.125C10.9524 8.75 10.8051 8.68898 10.6831 8.56694C10.561 8.4449 10.5 8.29759 10.5 8.125V6.875ZM3.625 10C3.45241 10 3.3051 10.061 3.18306 10.1831C3.06102 10.3051 3 10.4524 3 10.625V11.875C3 12.0476 3.06102 12.1949 3.18306 12.3169C3.3051 12.439 3.45241 12.5 3.625 12.5H4.875C5.04759 12.5 5.1949 12.439 5.31694 12.3169C5.43898 12.1949 5.5 12.0476 5.5 11.875V10.625C5.5 10.4524 5.43898 10.3051 5.31694 10.1831C5.1949 10.061 5.04759 10 4.875 10H3.625ZM6.75 10.625C6.75 10.4524 6.81102 10.3051 6.93306 10.1831C7.0551 10.061 7.20241 10 7.375 10H8.625C8.79759 10 8.9449 10.061 9.06694 10.1831C9.18898 10.3051 9.25 10.4524 9.25 10.625V11.875C9.25 12.0476 9.18898 12.1949 9.06694 12.3169C8.9449 12.439 8.79759 12.5 8.625 12.5H7.375C7.20241 12.5 7.0551 12.439 6.93306 12.3169C6.81102 12.1949 6.75 12.0476 6.75 11.875V10.625ZM11.125 10C10.9524 10 10.8051 10.061 10.6831 10.1831C10.561 10.3051 10.5 10.4524 10.5 10.625V11.875C10.5 12.0476 10.561 12.1949 10.6831 12.3169C10.8051 12.439 10.9524 12.5 11.125 12.5H12.375C12.5476 12.5 12.6949 12.439 12.8169 12.3169C12.939 12.1949 13 12.0476 13 11.875V10.625C13 10.4524 12.939 10.3051 12.8169 10.1831C12.6949 10.061 12.5476 10 12.375 10H11.125Z" fill="CurrentColor"/>
<path d="M0.5 1.25C0.5 0.904822 0.622039 0.610194 0.866116 0.366117C1.11019 0.122039 1.40482 0 1.75 0H14.25C14.5952 0 14.8898 0.122039 15.1339 0.366116C15.378 0.610194 15.5 0.904822 15.5 1.25V18.75C15.5 19.0952 15.378 19.3898 15.1339 19.6339C14.8898 19.878 14.5952 20 14.25 20H1.75C1.40482 20 1.11019 19.878 0.866116 19.6339C0.622039 19.3898 0.5 19.0952 0.5 18.75V1.25ZM14.25 1.25H1.75V18.75H5.5V15.625C5.5 15.4524 5.56102 15.3051 5.68306 15.1831C5.8051 15.061 5.95241 15 6.125 15H9.875C10.0476 15 10.1949 15.061 10.3169 15.1831C10.439 15.3051 10.5 15.4524 10.5 15.625V18.75H14.25V1.25Z" fill="CurrentColor"/>
</svg>
