<svg width="23" height="25" viewBox="0 0 23 25" fill="none" xmlns="http://www.w3.org/2000/svg">
<path d="M21.5055 16.9339V7.77406C21.5055 7.37406 21.4026 6.97979 21.1969 6.63122C21.0027 6.28265 20.7055 5.99696 20.3627 5.79125L12.3458 1.20846C12.0029 1.00846 11.6029 0.899902 11.203 0.899902C10.803 0.899902 10.403 1.00846 10.0601 1.20846L2.04321 5.79125C1.70037 5.99125 1.40325 6.28265 1.20898 6.63122C1.00327 6.97979 0.900391 7.37406 0.900391 7.77406V16.9339C0.900391 17.3339 1.00327 17.7282 1.20898 18.0768C1.40325 18.4253 1.70037 18.711 2.04321 18.9167L10.0601 23.4995C10.403 23.6995 10.803 23.8081 11.203 23.8081C11.6029 23.8081 12.0029 23.6995 12.3458 23.4995L20.3627 18.9167C20.7055 18.7167 21.0027 18.4253 21.1969 18.0768C21.4026 17.7282 21.5055 17.3339 21.5055 16.9339Z" stroke="#161616" stroke-width="1.8" stroke-linecap="round" stroke-linejoin="round"/>
<path d="M1.19727 6.5874L11.197 12.3702L21.1967 6.5874" stroke="#161616" stroke-width="1.8" stroke-linecap="round" stroke-linejoin="round"/>
<path d="M11.1973 23.8996V12.3569" stroke="#161616" stroke-width="1.8" stroke-linecap="round" stroke-linejoin="round"/>
</svg>
