<svg width="21" height="20" viewBox="0 0 21 20" fill="none" xmlns="http://www.w3.org/2000/svg">
<circle cx="10.3984" cy="10" r="9" fill="#F1F7FA" stroke="#85A3B8" stroke-width="1.5" stroke-linecap="round" stroke-dasharray="4 4"/>
<mask id="path-2-inside-1_2669_10454" fill="white">
<path d="M16.4338 2.02668C17.5688 2.88579 18.5073 3.9773 19.1865 5.22824C19.8658 6.47918 20.2701 7.86072 20.3725 9.28048C20.4749 10.7002 20.2731 12.1255 19.7804 13.461C19.2878 14.7965 18.5157 16.0114 17.5158 17.0245C16.5159 18.0376 15.3112 18.8256 13.9823 19.3357C12.6534 19.8459 11.2309 20.0664 9.80992 19.9827C8.38894 19.8989 7.00222 19.5127 5.74247 18.85C4.48272 18.1872 3.37897 17.2632 2.50504 16.1396L6.47745 13.0498C6.91157 13.6079 7.45985 14.0669 8.08562 14.3962C8.71139 14.7254 9.40024 14.9172 10.1061 14.9588C10.812 15.0004 11.5186 14.8909 12.1787 14.6375C12.8388 14.384 13.4372 13.9926 13.9339 13.4894C14.4306 12.9861 14.8141 12.3826 15.0589 11.7192C15.3036 11.0558 15.4039 10.3478 15.353 9.64258C15.3021 8.93733 15.1013 8.25106 14.7639 7.62967C14.4264 7.00827 13.9603 6.46607 13.3965 6.03931L16.4338 2.02668Z"/>
</mask>
<path d="M16.4338 2.02668C17.5688 2.88579 18.5073 3.9773 19.1865 5.22824C19.8658 6.47918 20.2701 7.86072 20.3725 9.28048C20.4749 10.7002 20.2731 12.1255 19.7804 13.461C19.2878 14.7965 18.5157 16.0114 17.5158 17.0245C16.5159 18.0376 15.3112 18.8256 13.9823 19.3357C12.6534 19.8459 11.2309 20.0664 9.80992 19.9827C8.38894 19.8989 7.00222 19.5127 5.74247 18.85C4.48272 18.1872 3.37897 17.2632 2.50504 16.1396L6.47745 13.0498C6.91157 13.6079 7.45985 14.0669 8.08562 14.3962C8.71139 14.7254 9.40024 14.9172 10.1061 14.9588C10.812 15.0004 11.5186 14.8909 12.1787 14.6375C12.8388 14.384 13.4372 13.9926 13.9339 13.4894C14.4306 12.9861 14.8141 12.3826 15.0589 11.7192C15.3036 11.0558 15.4039 10.3478 15.353 9.64258C15.3021 8.93733 15.1013 8.25106 14.7639 7.62967C14.4264 7.00827 13.9603 6.46607 13.3965 6.03931L16.4338 2.02668Z" fill="#F1F7FA" stroke="#85A3B8" stroke-width="2.8" mask="url(#path-2-inside-1_2669_10454)"/>
</svg>
