<svg width="18" height="18" viewBox="0 0 18 18" fill="none" xmlns="http://www.w3.org/2000/svg">
<path d="M2.25 0.0498047H6C6.38639 0.0498047 6.7002 0.363614 6.7002 0.75V4.5C6.7002 4.88639 6.38639 5.2002 6 5.2002C5.61361 5.2002 5.2998 4.88639 5.2998 4.5V2.41699L5.22461 2.45996C2.90839 3.79934 1.4502 6.28956 1.4502 9C1.4502 13.1631 4.83689 16.5498 9 16.5498C9.38639 16.5498 9.7002 16.8636 9.7002 17.25C9.7002 17.6364 9.38639 17.9502 9 17.9502C4.06411 17.9502 0.0498047 13.9359 0.0498047 9C0.0498047 5.97499 1.5821 3.18285 4.05078 1.54199L4.18848 1.4502H2.25C1.86361 1.4502 1.5498 1.13639 1.5498 0.75C1.5498 0.363614 1.86361 0.0498047 2.25 0.0498047ZM9 0.0498047C13.9359 0.0498047 17.9502 4.06411 17.9502 9C17.9502 12.0431 16.4238 14.8202 13.9521 16.458L13.8145 16.5498H15.75C16.1364 16.5498 16.4502 16.8636 16.4502 17.25C16.4502 17.6364 16.1364 17.9502 15.75 17.9502H12C11.6136 17.9502 11.2998 17.6364 11.2998 17.25V13.5C11.2998 13.1136 11.6136 12.7998 12 12.7998C12.3864 12.7998 12.7002 13.1136 12.7002 13.5V15.585L12.7754 15.541C15.096 14.2046 16.5498 11.7283 16.5498 9C16.5498 4.83689 13.1631 1.4502 9 1.4502C8.61361 1.4502 8.2998 1.13639 8.2998 0.75C8.2998 0.363614 8.61361 0.0498047 9 0.0498047ZM12.2529 5.88086C12.5258 5.608 12.9692 5.60812 13.2422 5.88086C13.5152 6.15383 13.5152 6.59812 13.2422 6.87109L7.99219 12.1211C7.8554 12.2576 7.67697 12.324 7.49805 12.3242C7.31946 12.3237 7.14075 12.2556 7.00391 12.1201H7.00293L4.75391 9.87109C4.48101 9.5982 4.48116 9.15385 4.75391 8.88086C5.02688 8.60789 5.47117 8.60789 5.74414 8.88086L7.49805 10.6348L7.53418 10.5996L12.2529 5.88086Z" fill="#85A3B8" stroke="#85A3B8" stroke-width="0.1"/>
</svg>
