<svg width="15" height="16" viewBox="0 0 15 16" fill="none" xmlns="http://www.w3.org/2000/svg">
<path d="M7.3125 15.3496C3.2775 15.3496 0 12.0721 0 8.03711C0 4.00211 3.2775 0.724609 7.3125 0.724609C9.585 0.724609 11.7 1.76711 13.08 3.53711C13.1025 3.31961 13.125 3.07211 13.1475 2.77961L13.2825 1.24211C13.3125 0.934609 13.5825 0.709609 13.89 0.732109C14.1975 0.762109 14.43 1.03211 14.4 1.33961L14.265 2.87711C14.1675 4.09211 14.115 4.76711 13.5825 5.23211C13.0275 5.69711 12.33 5.63711 11.19 5.51711L9.66 5.35961C9.51191 5.34446 9.37586 5.27122 9.28168 5.15594C9.18749 5.04066 9.14283 4.89275 9.1575 4.74461C9.1875 4.43711 9.465 4.20461 9.7725 4.24211L11.3025 4.39961C11.7525 4.44461 12.105 4.48211 12.3675 4.48211C11.7965 3.67016 11.0383 3.0077 10.1571 2.55078C9.27592 2.09386 8.29762 1.85593 7.305 1.85711C3.8925 1.85711 1.1175 4.63211 1.1175 8.04461C1.1175 11.4571 3.8925 14.2321 7.305 14.2321C10.7175 14.2321 13.4925 11.4571 13.4925 8.04461C13.4925 7.73711 13.7475 7.48211 14.055 7.48211C14.3625 7.48211 14.6175 7.73711 14.6175 8.04461C14.6175 12.0796 11.34 15.3571 7.305 15.3571L7.3125 15.3496Z" fill="black"/>
</svg>
