<svg width="18" height="18" viewBox="0 0 18 18" fill="none" xmlns="http://www.w3.org/2000/svg">
<path d="M5.76758 0.210938H12.2324C12.4206 0.210938 12.601 0.286073 12.7344 0.417969L17.582 5.2666C17.7149 5.39947 17.789 5.57894 17.7891 5.76758V12.2324C17.7891 12.4207 17.714 12.6009 17.582 12.7344L12.7344 17.582C12.6014 17.715 12.4212 17.7891 12.2324 17.7891H5.76758C5.57951 17.789 5.39993 17.7138 5.2666 17.582L0.417969 12.7344C0.285029 12.6014 0.210938 12.4212 0.210938 12.2324V5.76758C0.211021 5.57961 0.285334 5.39893 0.416992 5.26562L0.417969 5.2666L5.2666 0.417969C5.39946 0.285149 5.57898 0.21102 5.76758 0.210938ZM10.9229 6.07812C11.1989 5.80204 11.6477 5.80208 11.9238 6.07812C12.1999 6.35422 12.1999 6.803 11.9238 7.0791L10.001 9.00195L10.0723 9.07227L11.9238 10.9248L11.9268 10.9268C12.1478 11.1325 12.1776 11.4369 12.0693 11.6943C11.9609 11.9521 11.7225 12.1438 11.4268 12.1328L11.4248 12.1738V12.1328C11.2887 12.1328 11.1524 12.0933 11.0342 12.0156L10.9229 11.9258L9 10.0029L8.92969 10.0742L7.07715 11.9258C6.80104 12.2018 6.35225 12.2019 6.07617 11.9258C5.80015 11.6497 5.80016 11.2009 6.07617 10.9248L7.99902 9.00195L7.92871 8.93066L6.07617 7.0791C5.80013 6.80306 5.80024 6.35424 6.07617 6.07812C6.35227 5.80203 6.80105 5.80203 7.07715 6.07812L8.92969 7.92969L9 8.00098L10.9229 6.07812ZM16.373 6.06055L16.3438 6.03223L11.9395 1.62793H6.06055L6.03223 1.65723L1.65723 6.03223L1.62793 6.06055V11.9395L6.03223 16.3438L6.06055 16.373H11.9395L16.373 11.9395V6.06055Z" fill="#85A3B8" stroke="#85A3B8" stroke-width="0.2"/>
</svg>
