<svg width="17" height="22" viewBox="0 0 17 22" fill="none" xmlns="http://www.w3.org/2000/svg">
<path d="M12.2832 6.51562L15.1684 7.63138C15.4218 7.78342 15.6414 7.99459 15.785 8.25222C15.937 8.50985 16.0131 8.80127 16.0131 9.09691V15.8672C16.0131 16.1628 15.937 16.4542 15.785 16.7119C15.6414 16.9695 15.4218 17.1849 15.1684 17.3327L9.24284 20.7199C8.98943 20.8678 8.69379 20.948 8.39815 20.948C8.1025 20.948 7.80686 20.8678 7.55345 20.7199L1.6279 17.3327C1.37449 17.1806 1.15489 16.9695 1.01129 16.7119C0.859242 16.4542 0.783203 16.1628 0.783203 15.8672V9.09691C0.783203 8.80127 0.859242 8.50985 1.01129 8.25222C1.15489 7.99459 1.37449 7.7792 1.6279 7.63138L3.7832 6.51562" stroke="#85A3B8" stroke-width="1.5" stroke-linecap="round" stroke-linejoin="round"/>
<path d="M1.00293 8.21875L8.39402 12.4929L15.7851 8.21875" stroke="#85A3B8" stroke-width="1.5" stroke-linecap="round" stroke-linejoin="round"/>
<path d="M8.39453 21.0158V12.4844" stroke="#85A3B8" stroke-width="1.5" stroke-linecap="round" stroke-linejoin="round"/>
<path d="M5.2832 4.01562L8.21847 1.0159L11.2832 4.01562" stroke="#85A3B8" stroke-width="1.5" stroke-linecap="round" stroke-linejoin="round"/>
<path d="M8.21731 7.51614L8.21761 1.01676" stroke="#85A3B8" stroke-width="1.5" stroke-linecap="round" stroke-linejoin="round"/>
</svg>
