<svg width="22" height="22" viewBox="0 0 22 22" fill="none" xmlns="http://www.w3.org/2000/svg">
<path d="M20.2087 14.8907C19.575 16.3925 18.5772 17.7197 17.3099 18.7525C16.0425 19.7852 14.5407 20.4887 12.9391 20.808C11.3375 21.1274 9.68095 21.0475 8.11925 20.5735C6.55755 20.1045 5.13053 19.2564 3.96799 18.1088C2.80545 16.9613 1.94232 15.5443 1.45834 13.9877C0.969372 12.431 0.869544 10.7746 1.16891 9.16801C1.46828 7.56146 2.15683 6.05468 3.16969 4.77742C4.18754 3.50016 5.49979 2.48734 6.99663 1.83374" stroke="#161616" stroke-width="2" stroke-linecap="round" stroke-linejoin="round"/>
<path d="M20.996 11.0036C20.996 9.69137 20.7366 8.38915 20.2327 7.17675C19.7287 5.96435 18.9952 4.86172 18.0622 3.93371C17.1342 3.0057 16.0315 2.26728 14.8191 1.76336C13.6066 1.25944 12.3044 1 10.9922 1V10.9986H20.991L20.996 11.0036Z" stroke="#161616" stroke-width="2" stroke-linecap="round" stroke-linejoin="round"/>
</svg>
