<svg width="29" height="29" viewBox="0 0 29 29" fill="none" xmlns="http://www.w3.org/2000/svg">
<rect x="0.5" y="0.5" width="28" height="28" rx="3.5" stroke="#7C7C7C"/>
<path d="M25.8477 21.0446C25.2754 22.4009 24.3742 23.5995 23.2297 24.5323C22.0852 25.465 20.7288 26.1004 19.2824 26.3888C17.8359 26.6771 16.3399 26.605 14.9295 26.177C13.5191 25.7534 12.2304 24.9874 11.1804 23.951C10.1305 22.9146 9.35102 21.6349 8.91393 20.229C8.47234 18.8231 8.38218 17.3271 8.65255 15.8761C8.92291 14.4252 9.54475 13.0643 10.4595 11.9108C11.3787 10.7572 12.5638 9.84249 13.9156 9.2522" stroke="#010203" stroke-linecap="round" stroke-linejoin="round"/>
<path d="M26.5595 17.5347C26.5595 16.3496 26.3252 15.1735 25.8701 14.0785C25.415 12.9835 24.7526 11.9877 23.91 11.1496C23.0718 10.3114 22.076 9.64454 20.981 9.18943C19.886 8.73431 18.71 8.5 17.5249 8.5V17.5302H26.555L26.5595 17.5347Z" stroke="#010203" stroke-linecap="round" stroke-linejoin="round"/>
</svg>
