<svg width="24" height="24" viewBox="0 0 24 24" fill="none" xmlns="http://www.w3.org/2000/svg">
<path d="M14.5441 5.98681C14.3304 6.20048 14.2148 6.49501 14.2148 6.79531C14.2148 7.09561 14.3361 7.39014 14.5441 7.60381L16.3981 9.4576C16.6118 9.67127 16.9063 9.78677 17.2067 9.78677C17.507 9.78677 17.8016 9.6655 18.0153 9.4576L22.3817 5.09169C22.9651 6.37951 23.1383 7.81171 22.89 9.19771C22.6359 10.5895 21.9659 11.8658 20.9667 12.8648C19.9675 13.8639 18.691 14.5338 17.2991 14.7879C15.9129 15.042 14.4748 14.863 13.1925 14.2855L5.19316 22.2839C4.7311 22.7459 4.10734 23 3.45468 23C2.80203 23 2.17824 22.7401 1.71618 22.2839C1.25413 21.8219 1 21.1982 1 20.5456C1 19.893 1.2599 19.2693 1.71618 18.8073L9.71556 10.8089C9.13221 9.52112 8.95895 8.08891 9.21308 6.70291C9.46721 5.31113 10.1372 4.03485 11.1364 3.03577C12.1356 2.0367 13.412 1.36679 14.804 1.11269C16.1901 0.858593 17.6283 1.03762 18.9105 1.61513L14.5556 5.96948L14.5441 5.98103V5.98681Z" stroke="#161616" stroke-width="1.8" stroke-linecap="round" stroke-linejoin="round"/>
</svg>
