<svg width="24" height="24" viewBox="0 0 24 24" fill="none" xmlns="http://www.w3.org/2000/svg">
<path d="M14.4444 5.88671C14.2307 6.10038 14.1152 6.39492 14.1152 6.69522C14.1152 6.99552 14.2365 7.29004 14.4444 7.50371L16.2985 9.3575C16.5122 9.57117 16.8067 9.68667 17.1071 9.68667C17.4074 9.68667 17.702 9.5654 17.9157 9.3575L22.2821 4.99159C22.8655 6.27942 23.0387 7.71161 22.7904 9.09761C22.5362 10.4894 21.8662 11.7657 20.867 12.7648C19.8678 13.7638 18.5914 14.4337 17.1995 14.6878C15.8133 14.9419 14.3751 14.7629 13.0929 14.1854L5.09355 22.1838C4.6315 22.6458 4.00773 22.8999 3.35507 22.8999C2.70242 22.8999 2.07863 22.64 1.61657 22.1838C1.15452 21.7218 0.900391 21.0981 0.900391 20.4455C0.900391 19.7929 1.16029 19.1692 1.61657 18.7072L9.61595 10.7088C9.03261 9.42102 8.85934 7.98882 9.11347 6.60281C9.3676 5.21104 10.0376 3.93475 11.0368 2.93568C12.036 1.9366 13.3124 1.2667 14.7044 1.0126C16.0905 0.758495 17.5287 0.937527 18.8109 1.51503L14.456 5.86938L14.4444 5.88094V5.88671Z" stroke="#161616" stroke-width="1.8" stroke-linecap="round" stroke-linejoin="round"/>
</svg>
