<svg width="16" height="16" viewBox="0 0 16 16" fill="none" xmlns="http://www.w3.org/2000/svg">
<path d="M0.727539 0.0996094H15.2725C15.6187 0.0996094 15.9004 0.381313 15.9004 0.727539V15.2725C15.9004 15.6187 15.6187 15.9004 15.2725 15.9004H0.727539C0.381313 15.9004 0.0996094 15.6187 0.0996094 15.2725V0.727539C0.0996094 0.381313 0.381313 0.0996094 0.727539 0.0996094ZM1.35449 14.6455H14.6455V1.35449H1.35449V14.6455ZM3.63672 11.7363H7.27246C7.61857 11.7363 7.9002 12.0172 7.90039 12.3633C7.90039 12.7095 7.61869 12.9912 7.27246 12.9912H3.63672C3.29049 12.9912 3.00879 12.7095 3.00879 12.3633C3.00898 12.0172 3.29061 11.7363 3.63672 11.7363ZM3.63672 8.82715H5.09082C5.4369 8.82715 5.71753 9.10808 5.71777 9.4541C5.71777 9.80033 5.43705 10.082 5.09082 10.082H3.63672C3.29049 10.082 3.00879 9.80033 3.00879 9.4541C3.00903 9.10808 3.29064 8.82715 3.63672 8.82715ZM11.918 6.10254C12.1625 5.8581 12.5601 5.85819 12.8047 6.10254C13.0492 6.3471 13.0492 6.74467 12.8047 6.98926L9.89551 9.89844C9.77286 10.0211 9.6131 10.0809 9.45215 10.0811C9.29228 10.0804 9.13239 10.0198 9.00977 9.89844H9.01074L7.55566 8.44434C7.31116 8.19983 7.31133 7.80222 7.55566 7.55762C7.80025 7.31303 8.1978 7.31303 8.44238 7.55762L9.38281 8.49707L9.45312 8.56738L11.918 6.10254ZM3.63672 5.91797H5.09082C5.43705 5.91797 5.71777 6.19967 5.71777 6.5459C5.71753 6.89192 5.4369 7.17285 5.09082 7.17285H3.63672C3.29064 7.17285 3.00903 6.89192 3.00879 6.5459C3.00879 6.19967 3.29049 5.91797 3.63672 5.91797ZM3.63672 3.00879H7.27246C7.61869 3.00879 7.90039 3.29049 7.90039 3.63672C7.9002 3.98278 7.61857 4.26367 7.27246 4.26367H3.63672C3.29061 4.26367 3.00898 3.98278 3.00879 3.63672C3.00879 3.29049 3.29049 3.00879 3.63672 3.00879Z" fill="#85A3B8" stroke="#85A3B8" stroke-width="0.2"/>
</svg>
