<svg width="22" height="22" viewBox="0 0 22 22" fill="none" xmlns="http://www.w3.org/2000/svg">
<path d="M1 17.6676V10.9972C1 8.34683 2.05348 5.80178 3.93312 3.92765C5.80168 2.05352 8.34668 1 11.0026 1C13.6585 1 16.2035 2.05352 18.072 3.92765C19.9517 5.80178 21.0052 8.34683 21.0052 10.9972V17.6676" stroke="#161616" stroke-width="2" stroke-linecap="round" stroke-linejoin="round"/>
<path d="M21.0052 18.7818C21.0052 19.3695 20.7723 19.9351 20.3509 20.3509C19.9406 20.7668 19.3751 20.9997 18.7818 20.9997H17.6728C17.0851 20.9997 16.5195 20.7668 16.1037 20.3509C15.6823 19.9351 15.4494 19.3695 15.4494 18.7818V15.4494C15.4494 14.8616 15.6823 14.296 16.1037 13.8802C16.514 13.4643 17.0796 13.2314 17.6728 13.2314H21.0052V18.7873V18.7818ZM1 18.7818C1 19.3695 1.23287 19.9351 1.65427 20.3509C2.06457 20.7668 2.63014 20.9997 3.22342 20.9997H4.33235C4.92009 20.9997 5.48566 20.7668 5.90151 20.3509C6.3229 19.9351 6.55577 19.3695 6.55577 18.7818V15.4494C6.55577 14.8616 6.3229 14.296 5.90151 13.8802C5.4912 13.4643 4.92563 13.2314 4.33235 13.2314H1V18.7873V18.7818Z" stroke="#161616" stroke-width="2" stroke-linecap="round" stroke-linejoin="round"/>
</svg>
