<svg width="22" height="22" viewBox="0 0 22 22" fill="none" xmlns="http://www.w3.org/2000/svg">
<path d="M1 17.6676V10.9972C1 8.34683 2.05348 5.80178 3.93312 3.92765C5.80168 2.05352 8.34668 1 11.0026 1C13.6585 1 16.2035 2.05352 18.072 3.92765C19.9517 5.80178 21.0052 8.34683 21.0052 10.9972V17.6676" stroke="#161616" stroke-width="2" stroke-linecap="round" stroke-linejoin="round"/>
<path d="M21.0052 18.7808C21.0052 19.3685 20.7723 19.9341 20.3509 20.35C19.9406 20.7658 19.3751 20.9987 18.7818 20.9987H17.6728C17.0851 20.9987 16.5195 20.7658 16.1037 20.35C15.6823 19.9341 15.4494 19.3685 15.4494 18.7808V15.4484C15.4494 14.8606 15.6823 14.2951 16.1037 13.8792C16.514 13.4633 17.0796 13.2305 17.6728 13.2305H21.0052V18.7863V18.7808ZM1 18.7808C1 19.3685 1.23287 19.9341 1.65427 20.35C2.06457 20.7658 2.63014 20.9987 3.22342 20.9987H4.33235C4.92009 20.9987 5.48566 20.7658 5.90151 20.35C6.3229 19.9341 6.55577 19.3685 6.55577 18.7808V15.4484C6.55577 14.8606 6.3229 14.2951 5.90151 13.8792C5.4912 13.4633 4.92563 13.2305 4.33235 13.2305H1V18.7863V18.7808Z" stroke="#161616" stroke-width="2" stroke-linecap="round" stroke-linejoin="round"/>
</svg>
