<svg width="16" height="20" viewBox="0 0 16 20" fill="none" xmlns="http://www.w3.org/2000/svg">
<path d="M10.964 1.5035H5.36473C4.99447 1.5035 4.63818 1.6502 4.37621 1.91217C4.11423 2.17415 3.96753 2.53044 3.96753 2.9007V14.1028C3.96753 14.4731 4.11423 14.8293 4.37621 15.0913C4.63818 15.3533 4.99447 15.5 5.36473 15.5H13.7654C14.1357 15.5 14.492 15.3533 14.754 15.0913C15.0159 14.8293 15.1627 14.4731 15.1627 14.1028V5.70208L10.9605 1.5L10.964 1.5035Z" stroke="#161616" stroke-width="1.2" stroke-linecap="round" stroke-linejoin="round"/>
<path d="M10.9641 1.50391V5.70599H15.1662" stroke="#161616" stroke-width="1.2" stroke-linecap="round" stroke-linejoin="round"/>
<path d="M12.3646 9.20605H6.76526" stroke="#161616" stroke-width="1.2" stroke-linecap="round" stroke-linejoin="round"/>
<path d="M12.3646 12.0068H6.76526" stroke="#161616" stroke-width="1.2" stroke-linecap="round" stroke-linejoin="round"/>
<path d="M8.16596 6.4043H6.76526" stroke="#161616" stroke-width="1.2" stroke-linecap="round" stroke-linejoin="round"/>
<path d="M2.36473 4.50391C1.99447 4.50391 1.63818 4.65061 1.37621 4.91258C1.11423 5.17456 0.967529 5.53085 0.967529 5.90111V17.1032C0.967529 17.4735 1.11423 17.8297 1.37621 18.0917C1.63818 18.3537 1.99447 18.5004 2.36473 18.5004H10.7654C11.1357 18.5004 11.492 18.3537 11.754 18.0917C12.0159 17.8297 12.1627 17.4735 12.1627 17.1032" stroke="#161616" stroke-width="1.2" stroke-linecap="round" stroke-linejoin="round"/>
</svg>
