<svg width="26" height="17" viewBox="0 0 26 17" fill="none" xmlns="http://www.w3.org/2000/svg">
<path d="M18.2812 0.0498047H20.2627V2.37891H18.9248L18.9443 2.44336L20.4424 7.35156L20.4551 7.39258L20.498 7.38574C20.7057 7.35538 20.9152 7.33914 21.125 7.33594C23.786 7.33594 25.95 9.49178 25.9502 12.1426C25.9502 14.7935 23.7861 16.9502 21.125 16.9502C18.4639 16.9502 16.2998 14.7935 16.2998 12.1426C16.3007 11.3858 16.4813 10.6401 16.8262 9.96582C17.1604 9.31251 17.6404 8.74457 18.2285 8.30469L18.707 9.90332C18.2758 10.3669 17.9884 10.9455 17.8779 11.5684C17.7659 12.2007 17.8419 12.8516 18.0967 13.4414C18.3516 14.0313 18.7743 14.5342 19.3125 14.8877C19.7832 15.1968 20.3242 15.3803 20.8838 15.4219L21.125 15.4307C22.9456 15.4307 24.4248 13.957 24.4248 12.1426C24.4247 10.3283 22.9455 8.85449 21.125 8.85449C21.095 8.85449 21.0684 8.86232 21.0479 8.86816C21.0255 8.87452 21.0099 8.87872 20.9941 8.87988L20.9316 8.88477L20.9502 8.94434L21.8486 11.8809L20.3711 12.3086L18.6592 6.73926L18.6279 6.6377L18.5693 6.72656C18.4051 6.97643 18.2241 7.2312 18.0127 7.50879C17.2447 8.51666 16.1495 9.5855 14.8076 10.2002L14.791 10.207L14.7832 10.2236L13.8945 12.0195L13.8584 12.0918H13.8809C13.6026 12.5865 13.0618 12.9023 12.4922 12.9023H9.63086L9.62402 12.9443C9.43631 14.0639 8.85589 15.081 7.98633 15.8145C7.11674 16.5478 6.01436 16.9505 4.875 16.9502C2.21388 16.9502 0.0498047 14.7935 0.0498047 12.1426C0.0499578 9.49211 2.21344 7.33646 4.87402 7.33594C5.3517 7.3409 5.82685 7.41677 6.28223 7.56055L6.32324 7.57324L6.3418 7.53418L7.05273 6.06836L7.07617 6.01953L7.02637 6C6.57321 5.81859 5.94796 5.61621 5.28125 5.61621C4.61156 5.61621 3.98427 5.75022 3.52539 5.88379C3.29591 5.95059 3.10816 6.01817 2.97754 6.06836L2.81641 6.13281L2.14844 4.75488C2.15407 4.7524 2.16036 4.74996 2.16699 4.74707C2.20941 4.72861 2.2727 4.70268 2.35352 4.6709C2.51512 4.60734 2.74881 4.52234 3.03711 4.4375C3.61466 4.26757 4.40995 4.09766 5.28125 4.09766C6.33374 4.09707 7.36808 4.37398 8.27832 4.90039L8.28906 4.90723H11.0684L11.084 4.88867C11.4726 4.41352 12.5258 3.28809 14.625 3.28809H17.5879L17.5674 3.22266L17.3135 2.41406L17.3027 2.37891H13.8623V0.859375H17.1748L17.1865 0.826172C17.2647 0.599099 17.412 0.401868 17.6084 0.262695C17.7556 0.158378 17.9246 0.0905326 18.1016 0.0634766L18.2812 0.0498047ZM14.625 4.80762C13.7239 4.80762 13.0725 5.12783 12.6465 5.44922C12.4337 5.60977 12.2773 5.77083 12.1738 5.8916C12.1221 5.95201 12.0833 6.0025 12.0576 6.03809C12.0448 6.05587 12.0348 6.07034 12.0283 6.08008C12.0253 6.08461 12.0231 6.08828 12.0215 6.09082C12.0208 6.09194 12.02 6.09306 12.0195 6.09375L12.0186 6.09473L11.7812 6.42578H8.60254L8.58789 6.45312L7.69922 8.19922L7.67969 8.2373L7.71484 8.26172C8.48118 8.81939 9.06406 9.58922 9.39648 10.4736H7.69629C7.11935 9.50901 6.08036 8.85449 4.875 8.85449C3.05447 8.85449 1.57535 10.3283 1.5752 12.1426C1.5752 13.957 3.05437 15.4307 4.875 15.4307C6.40916 15.4307 7.67902 14.3808 8.04688 12.9648L8.0625 12.9023H4.9248V11.3838H12.5234L12.5371 11.3555L13.5273 9.38281L13.5283 9.37988L13.6455 9.09766L13.9541 9.00391L13.9561 9.00293C14.9826 8.63026 16.0411 7.57125 16.7979 6.58301C17.213 6.04422 17.5877 5.47556 17.9189 4.88184L17.96 4.80762H14.625Z" fill="#1B5C99" stroke="white" stroke-width="0.1"/>
</svg>
