<svg width="13" height="16" viewBox="0 0 13 16" fill="none" xmlns="http://www.w3.org/2000/svg">
<path d="M7.99651 1.0035H2.3972C2.02695 1.0035 1.67065 1.1502 1.40868 1.41217C1.1467 1.67415 1 2.03044 1 2.4007V13.6028C1 13.9731 1.1467 14.3293 1.40868 14.5913C1.67065 14.8533 2.02695 15 2.3972 15H10.7979C11.1682 15 11.5244 14.8533 11.7864 14.5913C12.0484 14.3293 12.1951 13.9731 12.1951 13.6028V5.20208L7.99302 1L7.99651 1.0035Z" stroke="white" stroke-width="1.2" stroke-linecap="round" stroke-linejoin="round"/>
<path d="M7.99707 1.00391V5.20599H12.1992" stroke="white" stroke-width="1.2" stroke-linecap="round" stroke-linejoin="round"/>
<path d="M9.39704 8.70605H3.79773" stroke="white" stroke-width="1.2" stroke-linecap="round" stroke-linejoin="round"/>
<path d="M9.39704 11.5068H3.79773" stroke="white" stroke-width="1.2" stroke-linecap="round" stroke-linejoin="round"/>
<path d="M5.19843 5.9043H3.79773" stroke="white" stroke-width="1.2" stroke-linecap="round" stroke-linejoin="round"/>
</svg>
