<svg width="20" height="19" viewBox="0 0 20 19" fill="none" xmlns="http://www.w3.org/2000/svg">
<path d="M14.7324 2.94727L14.7539 2.98438L14.7959 2.99316L17.9824 3.69727L17.6729 6.95703L17.6689 7L17.6973 7.0332L19.8662 9.5L17.6973 11.9668L17.6689 11.999L17.6729 12.043L17.9824 15.3018L14.7959 16.0068L14.7539 16.0156L14.7324 16.0527L13.0488 18.874L10.0391 17.5957L10 17.5791L9.96094 17.5957L6.9502 18.874L5.26758 16.0527L5.24609 16.0156L5.2041 16.0068L2.0166 15.3018L2.32715 12.043L2.33105 11.999L2.30273 11.9668L0.132812 9.5L2.30273 7.0332L2.33105 7L2.32715 6.95703L2.0166 3.69727L5.2041 2.99316L5.24609 2.98438L5.26758 2.94727L6.9502 0.125L9.96094 1.4043L10 1.4209L10.0391 1.4043L13.0488 0.125L14.7324 2.94727ZM12.2783 2.21582L9.99902 3.19336L7.6748 2.21484L7.59473 2.18066L7.5498 2.25684L6.2998 4.38965L3.84277 4.9248L3.75586 4.94336L3.76367 5.03125L3.9873 7.52148L2.33301 9.43457L2.27637 9.50098L2.33398 9.56641L3.9873 11.4336L3.76367 13.9688L3.75586 14.0566L3.84277 14.0752L6.29883 14.6094L7.59668 16.7451L7.6416 16.8193L7.72168 16.7842L10 15.8057L12.3252 16.7852L12.4053 16.8193L12.4502 16.7432L13.7002 14.6074L16.1592 14.0303L16.2441 14.0098L16.2363 13.9238L16.0117 11.4336L17.666 9.56641L17.7236 9.50098L17.667 9.43457L16.0117 7.52148L16.2363 5.03125L16.2441 4.94336L16.1572 4.9248L13.7002 4.38965L12.4033 2.25488L12.3584 2.18066L12.2783 2.21582ZM14.041 7.59766L9.0459 12.5703L5.96094 9.49902L7.0918 8.37207L8.97559 10.2041L9.04688 10.2725L9.11621 10.2031L12.9072 6.42773L14.041 7.59766Z" fill="#1B5C99" stroke="white" stroke-width="0.2"/>
</svg>
